<?xml version="1.0" encoding="utf-8"?>
<!-- Generator: Adobe Illustrator 25.2.0, SVG Export Plug-In . SVG Version: 6.00 Build 0)  -->
<svg version="1.1" xmlns="http://www.w3.org/2000/svg" xmlns:xlink="http://www.w3.org/1999/xlink" x="0px" y="0px"
	 viewBox="0 0 349.61 308.88" style="enable-background:new 0 0 349.61 308.88;" xml:space="preserve">
<style type="text/css">
	.st0{display:none;fill:#FFFFFF;}
	.st1{fill:#FFFFFF;}
	.st2{fill:#F7941D;}
	.st3{fill:none;}
	.st4{display:none;}
</style>
<g id="Layer_1">
	<g id="Dot_Pattern_Vector_Pack_12">
	</g>
	<path class="st1" d="M338.38,277.34c-36.47,1.22-72.96,1.72-109.44,2.02c-10.36,0.08-20.72,0.15-31.08,0.21
		c-8.56,0.05-17.21,0.6-25.63-1.26c-14.68-3.25-26.37-12.85-34.43-25.3c-11.48-17.77-17.22-41.15-17.22-82.77v-13.46
		c0-87.9,13.46-131.87,40.37-131.87c11.12,0,20.63,6.92,28.53,20.73c7.88,13.81,11.84,35.62,11.84,65.39
		c0,9.13,0.02,20.12-0.32,28.61l-0.03,2.84c-0.08,7.86,6.31,14.25,14.17,14.18l58.67-0.53c6.61-0.06,12.28-4.72,13.62-11.19
		c1.81-6.45,2.69-14.17,2.69-23.15c0-19.72-5.3-37.76-15.87-54.1c-10.6-16.32-25.65-29.33-45.2-39.02
		c-19.57-9.69-42.26-14.53-68.1-14.53c-25.84,0-48.71,5.74-68.62,17.22c-19.91,11.5-35.45,27.98-46.57,49.51
		c-11.12,21.55-16.67,46.84-16.67,75.9c0,44.51,12.72,73.1,38.2,98.4c30.92,30.69,73.79,38.35,115.77,37.92
		c51.98,0,104.03-0.74,155.96-2.99L338.38,277.34z"/>
	<path class="st2" d="M245.93,250.97l-22.75-39.41l-17.59-30.47c-2.29-3.97,0.57-8.94,5.16-8.94h35.18h37.48
		c3.57,0,5.8,3.86,4.01,6.95l-18.74,32.46L245.93,250.97z"/>
</g>
<g id="Layer_2">
</g>
</svg>
