<svg xmlns="http://www.w3.org/2000/svg" width="113" height="30" viewBox="0 0 113 30">
    <path fill="#FFF" fill-rule="evenodd" d="M13.588 17.566v2.46h.957c.576 0 .865-.38.88-1.124v-.289c0-.668-.38-1.047-.88-1.047h-.957zm0-8.214v1.989h.896c.516 0 .774-.304.79-.896v-.151c-.016-.623-.29-.942-.82-.942h-.866zm9.049 4.889c4.144.592 6.346 2.839 6.346 6.589v.562c0 2.49-.85 4.448-2.536 5.86-1.685 1.412-4.16 2.126-7.424 2.126H0V0h19.312c2.884 0 5.131.577 6.756 1.746 1.61 1.169 2.414 2.976 2.414 5.405v.334c0 3.902-1.898 5.845-5.845 6.437v.319zM58.633 0v18.431c0 3.917-1.245 6.817-3.735 8.715C52.408 29.043 48.87 30 44.3 30c-4.843 0-8.411-.926-10.673-2.794-2.278-1.852-3.416-4.782-3.416-8.775V0h13.497v19.145c0 .713.212 1.062.652 1.062.456 0 .684-.349.684-1.062V0h13.588zm18.104 19.555h8.745v9.823H60.295V20.42l8.396-10.597h-8.123V0h24.687l-.061 8.578-8.457 10.977zm26.817 0h8.745v9.823H87.112V20.42l8.395-10.597h-8.122V0h24.686l-.06 8.578-8.457 10.977z"/>
</svg>
