<svg xmlns="http://www.w3.org/2000/svg" width="64" height="64" viewBox="0 0 64 64">
    <path fill="#FFF" fill-rule="evenodd" d="M0 64V0h64v64H0zm48.32-24.94h4.177l-3.534-5.306v-.051c.898-.373 1.59-.94 2.073-1.7.483-.76.725-1.7.725-2.82 0-.76-.108-1.452-.326-2.077a4.693 4.693 0 0 0-.97-1.643c-.428-.47-.99-.834-1.688-1.093s-1.5-.389-2.405-.389h-5.876v15.08h3.493V34.2h1.243l3.089 4.86zm-.865-11.39c.418.367.627.844.627 1.431 0 .615-.22 1.1-.658 1.456-.439.356-1.038.534-1.798.534h-1.637v-3.97h1.7c.76 0 1.348.183 1.766.55zm-9.03 8.867c.201-.508.301-1.07.301-1.684 0-.96-.245-1.769-.735-2.425-.491-.657-1.234-1.12-2.229-1.389v-.041c.394-.16.736-.365 1.026-.617.29-.252.519-.528.684-.83.166-.3.287-.605.363-.916a4.04 4.04 0 0 0 .114-.964c0-.587-.102-1.107-.306-1.56a3.022 3.022 0 0 0-.917-1.156c-.408-.317-.926-.56-1.554-.725-.629-.166-1.358-.249-2.187-.249h-5.69v15.08h6.612c.788 0 1.49-.106 2.11-.316.618-.211 1.124-.505 1.518-.881.393-.377.69-.819.89-1.327zm-3.948-3.321c.373.29.56.677.56 1.16 0 .263-.054.494-.16.695-.108.2-.26.364-.457.492s-.43.226-.7.295c-.269.07-.57.104-.9.104h-2.043V32.78h2.042c.732 0 1.285.145 1.658.436zm-.653-3.597c-.359.249-.818.373-1.378.373h-1.669v-2.88h1.555c.684-.008 1.194.118 1.529.378.335.258.502.612.502 1.062 0 .463-.18.818-.539 1.067zm-18.109 4.115c-.328-.65-.492-1.372-.492-2.166 0-.456.048-.886.145-1.29.097-.405.234-.768.41-1.089.176-.321.388-.61.637-.865.249-.256.522-.468.819-.638.297-.169.618-.299.964-.388a4.23 4.23 0 0 1 1.067-.135c.69 0 1.339.168 1.943.502a5.41 5.41 0 0 1 1.529 1.24l2.601-2.219a7.836 7.836 0 0 0-1.86-1.653 7.948 7.948 0 0 0-2.099-.963 7.736 7.736 0 0 0-2.114-.296c-.974 0-1.878.131-2.71.394-.833.263-1.556.632-2.171 1.109a7.226 7.226 0 0 0-2.555 3.824 9.132 9.132 0 0 0-.327 2.467c0 .974.137 1.877.41 2.71.273.832.65 1.55 1.13 2.155a7.16 7.16 0 0 0 1.694 1.545c.65.424 1.358.742 2.125.953.766.21 1.568.316 2.404.316 1.271 0 2.429-.264 3.472-.792a7.79 7.79 0 0 0 2.601-2.089l-2.601-2.228a4.66 4.66 0 0 1-1.55 1.249 4.192 4.192 0 0 1-1.922.471c-.795 0-1.503-.192-2.125-.575a3.807 3.807 0 0 1-1.425-1.55z"/>
</svg>
