<svg xmlns="http://www.w3.org/2000/svg" width="46" height="50" viewBox="0 0 46 50">
    <path fill="#FFF" fill-rule="evenodd" d="M22.646 0l7.87 6.91-2.773 3.305v.3l7.09 3.005 4.931-3.305-3.083-3.304V6.61c3.083-2.103 5.55-4.206 8.632-6.009l-1.541 14.422H1.542L0 .6C3.082 2.404 5.548 4.507 8.631 6.61v.3l-3.083 3.305 4.932 3.305 7.09-3.004v-.301l-2.774-3.304L22.646 0zM43.59 18.704l-.308 4.91H27.59v16.874h7.692c1.847 0 3.385-1.84 3.077-3.068-.308-1.84-1.846-2.761-3.384-3.682.307 0 5.538-3.682 8-5.522 0 .92-1.847 14.727-1.847 15.034L22.975 50h-.308L4.515 43.25c0-.307-1.847-14.114-1.847-15.034 2.462 1.534 7.692 5.522 8 5.522-1.539.92-3.077 1.841-3.384 3.682-.308 1.228 1.538 3.068 3.076 3.068h7.692V23.613H2.361l-.308-4.909H43.59z"/>
</svg>
