<svg xmlns="http://www.w3.org/2000/svg" width="127" height="32" viewBox="0 0 127 32">
    <path fill="#FFF" fill-rule="evenodd" d="M13.63.237h2.798v16.41H13.79V3.534l-5.226 13.1H6.741L1.528 3.522v13.125H0V.237h3.093L8.368 13.5 13.63.237zm10.168 16.397V.237h2.724v16.397h-2.724zm10.08.013V.237h2.589l8.676 12.001v-12h1.565v16.409h-1.885L35.443 3.67v12.976H33.88zm20.2-.013V.237h2.724v16.397h-2.724zm9.637-3.022c1.615 1.211 3.279 1.886 5.19 1.886 1.983 0 3.203-.999 3.203-2.798 0-1.31-.653-2.285-2.871-2.834l-1.294-.312c-2.465-.612-4.499-1.712-4.499-4.621 0-3.16 2.514-4.933 5.731-4.933 1.688 0 3.414.45 4.806 1.299l-.653 1.336c-1.294-.824-2.699-1.249-4.227-1.249-2.181 0-3.266 1.1-3.266 2.56 0 1.424.69 2.186 2.588 2.648l1.504.362c2.785.662 4.597 1.636 4.597 4.658 0 3.522-2.675 5.295-5.817 5.295-2.108 0-4.104-.7-5.817-1.923l.825-1.374zM83.52 1.636H78.37V.237h13.014v1.4h-5.152v15.01h-2.723V1.637h.012zm34.347 8.492L112.26.225h3.007l4.646 8.08 4.622-8.08h1.651L120.58 9.99v6.631h-2.724v-6.494h.012zM102.82.238c3.648 0 5.595 1.46 5.583 4.457-.025 2.985-1.27 4.222-4.388 4.234l-.086-.125c.937-.424 1.688-1.236 1.688-3.61 0-2.384-.825-3.608-3.623-3.608h-2.736v15.06h-2.723V.238h6.285zM95.757 27.8l1.548-2.558h1.716l-2.558 4.094v2.538h-1.548v-2.538l-2.548-4.094h1.769l1.621 2.558zm-10.993-2.558h1.6v5.316h3.37v1.316h-4.97v-6.632zm-6.908 4.473v2.159h-1.59v-6.632h2.801c1.716 0 2.716.8 2.716 2.231 0 1.432-1 2.242-2.716 2.242h-1.21zm0-1.284h1.148c.874 0 1.232-.326 1.232-.947s-.358-.958-1.232-.958h-1.148v1.905zm-8.497 1.284v2.159h-1.59v-6.632h2.8c1.717 0 2.716.8 2.716 2.231 0 1.432-1 2.242-2.716 2.242h-1.21zm0-1.284h1.147c.874 0 1.232-.326 1.232-.947s-.358-.958-1.232-.958H69.36v1.905zM61.472 32c-1.653 0-2.938-.8-2.938-2.737v-4.021h1.59v3.79c0 1.063.38 1.62 1.348 1.62.979 0 1.357-.557 1.357-1.61v-3.8h1.59v4.021C64.42 31.2 63.135 32 61.472 32zM49.69 29.516l1.463-.053c.063.916.747 1.284 1.568 1.284.706 0 1.148-.274 1.148-.716 0-.442-.39-.547-.969-.663l-1.242-.22c-1.053-.201-1.8-.79-1.8-1.917 0-1.305 1.021-2.116 2.632-2.116 1.8 0 2.779.895 2.81 2.369l-1.474.042c-.042-.78-.578-1.158-1.347-1.158-.673 0-1.053.273-1.053.726 0 .38.295.516.78.61l1.242.222c1.357.242 1.979.916 1.979 2 0 1.368-1.19 2.074-2.706 2.074-1.768 0-3.031-.874-3.031-2.484zm-10.364 2.358h-1.59v-6.632h4.906v1.315h-3.316v1.474h2.516v1.305h-2.516v2.538zm-6.35-3.316c0-1.232-.684-2.043-1.769-2.043-1.073 0-1.758.811-1.758 2.043 0 1.231.685 2.042 1.758 2.042 1.085 0 1.769-.81 1.769-2.042zm1.642 0c0 2.042-1.474 3.442-3.41 3.442-1.927 0-3.4-1.4-3.4-3.442 0-2.043 1.473-3.443 3.4-3.443 1.936 0 3.41 1.4 3.41 3.443zm68.966-19.766l5.645 7.842h-3.242l-5.546-7.842h3.143z"/>
</svg>
