<svg xmlns="http://www.w3.org/2000/svg" width="113" height="50" viewBox="0 0 113 50">
    <g fill="#FFF" fill-rule="evenodd">
        <path d="M103.216 19.068c-1.413-.775-1.442-1.852-1.366-2.25.073-.4.354-.224.527-.224.93 0 1.907-.277 3.114-1.508 1.36-1.387 1.787-4.474-.3-6.481-2.255-2.169-4.651-1.789-6.19.157-.32.399-1.09.695-1.762.67-.986-.037-.366.741-.366.905 0 .164-.148.277-.234.25-.337-.094-.204.404-.204.555a.23.23 0 0 1-.21.226c-.42 0-.306.376-.293.477.011.101-.025.275-.162.352-.134.074-.29.401-.29.652 0 .452.415.766 1.106 1.283.69.514.777 1.004.789 1.357.014.35.045.916.205 1.293.186.45.16 1.28-.794 1.319-1.167.045-3.241.979-3.419 1.042-.657.235-1.522.319-2.203.146-.37-.256-.716-.54-1.047-.841-.135-.47.1-.975.34-1.315.39.39.968.364 1.293.378.325.011 1.924-.24 2.147-.316.227-.076.327-.05.466 0 .609.223 1.446.29 1.782-.878.34-1.17-.465-.842-.563-.791-.102.05-.239.037-.188-.064.147-.298-.075-.262-.201-.276-.328-.032-.757.314-.893.44-.139.126-.277.113-.325.088-.437-.216-1.724.095-2.123-.603.035-.188-.327-3.027-.515-3.52a.472.472 0 0 1 .047-.463c.33-.49 1.231.04 1.72.027.588-.017.685-.26.843-.458.155-.193.27-.086.353-.139.105-.07.007-.207.042-.283.04-.076.083-.038.183-.125.103-.09-.012-.278.039-.352.144-.22.539-.043.3-.616-.128-.314.053-.653.227-.88.286-.367 1.382-1.911-.552-3.516-1.85-1.534-3.718-1.408-4.926-.102-1.205 1.307-.601 3.216-.476 3.717.128.504-.237.96-.657 1.157-.325.156-1.08.659-1.649 1.154.093-4.1 2.58-7.703 6.394-9.24.162.205.344.397.54.576-.422.31-1.35 1.142-1.35 1.142s.124.018.242.047c.082.02.257.074.257.074s.815-.698 1.2-.972c.298.225.622.415.969.567-.184.315-.652 1.19-.652 1.19s.111.06.206.127c.095.063.156.12.156.12s.506-.955.7-1.275c.426.142.871.224 1.323.247v1.751c-.255-.009-.894-.034-1.155-.062l-.163-.014.09.135c.072.1.121.2.172.293l.02.038.044.002c.187.018.773.039.992.043v3.19h.443v-.73c.648-.03 1.19-.075 1.84-.132l.029-.003.572-.51-.311.03c-.69.09-1.294.13-1.845.163l-.285.015V5.5c.799-.017 1.604-.129 2.387-.336.215.528.616 1.805.616 1.805l.417-.131s-.4-1.268-.612-1.796a10.387 10.387 0 0 0 1.91-.81 10.88 10.88 0 0 1 1.26 1.955c-.313.146-.89.35-.89.35.46.049.809.156.809.156l.266-.114c.042.091.12.279.12.279l.573.253-.067-.16s-.188-.453-.235-.56c.608-.298 1.202-.64 1.777-1.027a10.173 10.173 0 0 1 1.659 5.58c0 3.312-1.583 6.256-4.033 8.123zM95.924.802a11.36 11.36 0 0 0-1.795.99 4.268 4.268 0 0 1-.468-.48c.725-.256 1.49-.426 2.263-.51zm-.612 1.728a4.217 4.217 0 0 1-.815-.455c.573-.38 1.188-.705 1.835-.968-.366.455-.708.93-1.02 1.423zm1.504-1.333v1.677a4.311 4.311 0 0 1-1.082-.19c.324-.512.69-1.009 1.082-1.487zm.443 2.118a4.96 4.96 0 0 0 1.34-.247c.324.54.615 1.108.87 1.692a9.829 9.829 0 0 1-2.21.307V3.315zm0-2.138c.39.474.758.975 1.102 1.507a4.509 4.509 0 0 1-1.102.19V1.178zm2.341.898a4.34 4.34 0 0 1-.82.455 15.374 15.374 0 0 0-1.027-1.428c.645.265 1.263.591 1.847.973zm.83-.761a4.863 4.863 0 0 1-.468.482 11.16 11.16 0 0 0-1.786-.99c.774.086 1.53.254 2.254.508zm1.261 2.579a10 10 0 0 1-1.795.749 16.878 16.878 0 0 0-.885-1.736c.338-.151.667-.342.969-.567.623.453 1.197.978 1.711 1.554zm-.826-2.416c.848.343 1.652.805 2.383 1.369-.366.3-.762.578-1.172.827a11.047 11.047 0 0 0-1.753-1.62c.199-.179.375-.37.542-.576zm4.478 3.53c-.548.367-1.123.699-1.72.991a10.923 10.923 0 0 0-1.268-1.988 9.836 9.836 0 0 0 1.24-.887c.66.554 1.25 1.188 1.748 1.885zm-8.3-4.702c-5.874 0-10.644 4.772-10.644 10.64 0 5.87 4.77 10.64 10.644 10.64 5.861 0 10.639-4.77 10.639-10.64 0-5.868-4.778-10.64-10.64-10.64z"/>
        <path d="M97.062 23.773c1.912-.798 5.002-1.312 8.964-.238l.445.122-.426.174c-1.807.74-4.074.956-5.389.515-.494-.166-.792-.437-1.159-.795a5.83 5.83 0 0 0-1.812.516c.526.29 2.187 1.28 3.305 2.746l.081.104-.09.098c-.09.098-.31.268-.453.313l-.098.035-.064-.08c-.805-.996-1.971-2.134-3.307-2.894-1.335.76-2.5 1.898-3.3 2.895l-.067.078-.1-.034c-.139-.045-.36-.216-.45-.314l-.091-.097.08-.104c1.117-1.463 2.775-2.453 3.304-2.744a5.83 5.83 0 0 0-1.81-.517c-.367.357-.669.627-1.163.795-1.311.44-3.573.225-5.383-.514l-.428-.176.445-.122c3.963-1.074 7.052-.559 8.966.238zM85.435 3.131l.166-.149-.076.441c-.267 1.561-.921 2.916-1.798 3.713l-.198.184-.07-.316s-.02-.11-.022-.112c-.22-1.603 1.21-3.06 1.831-3.612l.167-.149zm-2.897 2.766l.071-.194.15.381c.443 1.125.641 3.636.487 4.837l-.135.677-.103-.134-.104-.133c-.92-1.12-.945-2.61-.813-3.667.099-.746.28-1.307.378-1.574l.07-.193zm-1.056 4.32l.013-.194.25.304c.882 1.076 2.058 4.084 2.094 5.09l.01.301-.252-.164c-2.15-1.409-2.207-4.061-2.129-5.139l.014-.197zm.369 4.752l-.036-.181.31.198c1.385.875 3.536 3.535 3.952 4.674l.11.302-.305-.1c-2.232-.718-3.68-3.187-3.992-4.712l-.04-.181zm4.486-9.54l.174-.106-.119.392c-.333 1.08-1.456 2.983-2.355 3.728l-.244.202-.015-.348c-.057-1.517.721-2.745 2.384-3.761l.175-.106zm-.978 3.323l.126-.12.013.344c.046 1.14-.823 3.583-1.481 4.51l-.18.248-.096-.29a3.5 3.5 0 0 1-.193-.888c-.119-1.813 1.261-3.28 1.685-3.686l.126-.118zm.068 3.146l.1-.14.088.321c.088.29.138.711.15 1.222.038 1.448-.202 3.278-.5 3.841l-.124.227-.147-.214a3.817 3.817 0 0 1-.684-2.055c-.02-.973.333-2.033 1.028-3.064l.09-.138zm.81 3.365l.047-.145.183.242c.667.878 1.518 3.76 1.549 4.902l-.013.217-.044.27-.2-.127c-1.192-.763-1.815-1.863-1.856-3.269-.017-.62.08-1.274.29-1.948l.044-.142zm-2.344 4.46l-.086-.143.332.054c1.22.198 4.67 2.145 5.2 2.935l.135.2-.24.039c-2.84.499-4.359-1.438-5.255-2.939l-.086-.145zm4.3-.995l-.024-.152.274.144c.92.634 3.556 2.88 3.753 3.655l.043.179-.184.016c-2.876.247-3.57-1.987-3.837-3.687l-.024-.155zm20.33-15.746l.162.149.17.148c.622.554 2.048 2.011 1.828 3.613l-.022.112-.071.316-.2-.184c-.874-.796-1.526-2.152-1.795-3.713l-.073-.44zm2.99 2.721l.072.193.07.194c.097.267.28.828.374 1.575.134 1.055.103 2.548-.811 3.665l-.102.135-.105.133-.137-.678c-.154-1.2.046-3.711.49-4.836l.149-.38zm1.114 4.32l.014.195.015.197c.076 1.077.018 3.73-2.13 5.137l-.26.166.019-.301c.034-1.007 1.212-4.014 2.091-5.09l.25-.304zm-.319 4.763l-.035.181-.039.182c-.311 1.526-1.76 3.994-3.994 4.713l-.307.099.113-.302c.418-1.14 2.57-3.798 3.953-4.673l.31-.2zm-4.615-9.514l.174.11.178.11c1.637 1.046 2.391 2.293 2.303 3.808l-.021.345-.239-.204c-.887-.762-1.972-2.686-2.282-3.776l-.113-.393zm.942 3.36l.128.12.125.118c.425.406 1.803 1.872 1.684 3.686a3.363 3.363 0 0 1-.189.888l-.095.289-.178-.247c-.663-.927-1.532-3.372-1.49-4.51l.015-.344zm-.035 3.127l.09.14.093.137c.696 1.032 1.051 2.091 1.027 3.065-.018.72-.247 1.413-.682 2.055l-.147.213-.118-.227c-.304-.563-.54-2.392-.505-3.84.01-.511.063-.934.149-1.223l.093-.32zm-.762 3.359l.044.145.046.142c.207.674.307 1.327.294 1.948-.044 1.406-.667 2.506-1.856 3.268l-.203.127-.042-.269-.018-.217c.032-1.143.888-4.024 1.55-4.902l.185-.242zm2.476 4.462l-.085.144-.085.145c-.899 1.5-2.416 3.438-5.258 2.939l-.237-.04.134-.2c.529-.79 3.978-2.736 5.199-2.934l.332-.054zm-4.36-1.004l-.024.152-.026.155c-.27 1.7-.963 3.934-3.837 3.687l-.183-.016.044-.18c.193-.772 2.83-3.02 3.75-3.655l.275-.143zM33.591 24.31V8.348h3.018V24.31h-3.018zm-.289-19.683V1.351h3.595v3.276h-3.595zm-22.52 3.735h3.021v15.964h-2.957v-2.353h-.063c-1.21 2.005-3.245 2.829-5.47 2.829-3.34 0-5.249-2.543-5.249-5.754V8.362h3.023v9.446c0 2.765.636 4.8 3.53 4.8 1.237 0 2.925-.635 3.563-2.288.571-1.495.603-3.373.603-3.754V8.362zm9.056 2.354h.062c1.017-2.005 3.243-2.83 4.833-2.83 1.112 0 6.041.286 6.041 5.405v11.035h-3.02V14.277c0-2.639-1.113-4.07-3.658-4.07 0 0-1.654-.095-2.924 1.176-.443.445-1.272 1.143-1.272 4.261v8.682h-3.02V8.361h2.958v2.355zm29.424 2.765c-.16-1.992-1.104-3.378-3.255-3.378-2.872 0-3.98 2.492-3.98 6.225 0 3.725 1.108 6.222 3.98 6.222 1.988 0 3.22-1.293 3.377-3.567h3.005c-.255 3.567-2.904 5.747-6.414 5.747-5.085 0-7.108-3.6-7.108-8.277 0-4.65 2.337-8.533 7.364-8.533 3.35 0 5.875 2.117 6.026 5.56h-2.995zm15.661 1.331c.066-2.653-1.136-4.71-4.044-4.71-2.497 0-3.977 2.112-3.977 4.71h8.021zm-8.02 2.083c-.223 2.78.915 5.656 3.976 5.656 2.337 0 3.51-.914 3.85-3.225h3.17c-.479 3.607-3.262 5.405-7.049 5.405-5.088 0-7.114-3.6-7.114-8.277 0-4.651 2.344-8.534 7.367-8.534 4.74.1 6.981 3.097 6.981 7.492v1.483H56.902zm14.578 7.36V10.482h-2.726V8.389h2.726V4.982c.1-3.476 2.72-4.39 4.966-4.39.723 0 1.422.186 2.148.313V3.4c-.508-.027-1.011-.097-1.519-.097-1.702 0-2.687.447-2.591 2.182v2.903h3.668v2.093h-3.668v13.773H71.48zM1.448 41.817v4.872c0 .74.165 1.673 1.614 1.673.708 0 1.371-.24 1.779-.845.316-.452.316-1.04.316-1.416v-4.284H6.62v6.153c0 .151.03.997.045 1.417H5.188l-.03-1.296c-.272.528-.785 1.372-2.413 1.372-1.87 0-2.745-1.07-2.745-2.562v-5.084h1.448zm7.057.875l-.016-.875h1.418l.016 1.223c.165-.317.708-1.372 2.427-1.372.68 0 2.745.255 2.745 2.578v5.141h-1.447v-4.81c0-.496-.061-.948-.409-1.295-.361-.35-.859-.513-1.341-.513-1.026 0-1.975.737-1.975 2.26v4.358H8.505v-6.695zm8.28 6.695v-7.57h1.417v7.57h-1.418zm-.153-9.303V38.53h1.705v1.554h-1.705zm3.017 1.704h1.341v-1.584l1.404-.453v2.037h1.689v1.04h-1.69v4.54c0 .376 0 1.01 1.01 1.01.287 0 .558-.046.68-.076v1.101a7 7 0 0 1-1.176.09c-1.298 0-1.917-.377-1.917-1.614v-5.05H19.65v-1.04zm10.887 3.076c.015-.724-.12-2.231-1.87-2.231-.92 0-2.035.557-2.066 2.231h3.936zm-3.996.995c-.03 1.568.618 2.73 2.172 2.73.92 0 1.658-.483 1.779-1.568h1.418c-.046.377-.106.994-.649 1.584-.332.375-1.086 1.01-2.609 1.01-2.382 0-3.513-1.479-3.513-3.877 0-1.492.301-2.728 1.493-3.558.724-.512 1.628-.558 2.067-.558 3.392 0 3.316 3.002 3.286 4.237H26.54zm15.2-6.303c-.242-.015-.543-.03-.83-.03-1.146 0-1.146.573-1.146 1.101v1.19h1.766v1.027h-1.766v6.543h-1.402v-6.543H36.87v-1.027h1.492v-.859c0-1.04.06-1.417.316-1.809.317-.482.92-.829 1.9-.829.409 0 .86.06 1.162.105v1.13zm4.283 9.033c1.071 0 2.293-.77 2.293-3.047 0-1.885-.875-2.88-2.203-2.88-.904 0-2.368.573-2.368 2.942 0 1.551.665 2.985 2.278 2.985zm.09-6.967c3.032 0 3.71 2.383 3.71 3.965 0 2.218-1.251 4.057-3.83 4.057-2.503 0-3.725-1.734-3.725-3.95 0-1.87.875-4.072 3.845-4.072zm5.096 1.735c0-.513-.028-1.041-.074-1.54h1.431l.03 1.464c.272-1.056 1.177-1.402 1.81-1.493a4.53 4.53 0 0 1 .981-.03v1.387a1.119 1.119 0 0 0-.271-.06c-.106-.016-.242-.016-.408-.016-1.673 0-2.066.996-2.066 2.292v4.026H51.21v-6.03zm13.995.888c-.03-.346-.135-1.583-1.507-1.583-1.963 0-1.963 2.278-1.963 2.85 0 1.553.38 3.002 1.885 3.002 1.206 0 1.614-.906 1.645-1.644h1.433c-.09 1.479-1.193 2.713-3.061 2.713-.513 0-1.688-.105-2.49-.979-.453-.527-.903-1.327-.903-2.895 0-3.152 1.93-4.087 3.438-4.087.499 0 1.628.105 2.322.935.559.648.604 1.267.635 1.688h-1.434zm3.077-5.73h1.43v4.419c.47-.8 1.406-1.252 2.46-1.252.798 0 1.945.287 2.382 1.206.15.302.256.665.256 1.766v4.734h-1.446V44.91c0-.68 0-2.142-1.63-2.142-1.054 0-1.583.65-1.779 1.01-.242.422-.242 1.132-.242 1.6v4.01H68.28V38.515zm8.58 10.872v-7.57h1.417v7.57H76.86zm-.153-9.303V38.53h1.705v1.554h-1.705zm3.65 9.303V38.515h1.417v10.872h-1.417zm8.384-6c-.302-.393-.86-.77-1.659-.77-2.08 0-2.08 2.518-2.08 3.031 0 1.342.346 2.895 2.08 2.895 2.232 0 2.232-2.458 2.232-3.046 0-1.1-.257-1.704-.573-2.11zm.526-4.872h1.419v9.667c0 .166.032.814.06 1.205H89.33l-.03-1.205c-.122.21-.287.527-.68.799-.617.421-1.356.557-1.87.557-1.01 0-3.257-.526-3.257-3.843 0-2.881 1.643-4.132 3.424-4.132 1.628 0 2.17.964 2.35 1.28v-4.328zm3.092 4.842c0-.513-.029-1.041-.074-1.54h1.432l.029 1.464c.27-1.056 1.176-1.402 1.81-1.493.422-.06.74-.045.98-.03v1.387a1.109 1.109 0 0 0-.273-.06c-.105-.016-.238-.016-.404-.016-1.675 0-2.066.996-2.066 2.292v4.026H92.36v-6.03zm10.496 1.507c.014-.724-.12-2.231-1.87-2.231-.919 0-2.034.557-2.065 2.231h3.935zm-3.994.995c-.031 1.568.616 2.73 2.17 2.73.92 0 1.657-.483 1.78-1.568h1.416c-.044.377-.105.994-.647 1.584-.335.375-1.087 1.01-2.61 1.01-2.38 0-3.514-1.479-3.514-3.877 0-1.492.302-2.728 1.495-3.558.724-.512 1.628-.558 2.065-.558 3.392 0 3.319 3.002 3.287 4.237h-5.442zm7.117-3.167l-.015-.875h1.417l.015 1.223c.168-.317.708-1.372 2.429-1.372.676 0 2.744.255 2.744 2.578v5.141h-1.448v-4.81c0-.496-.06-.948-.407-1.295-.361-.35-.86-.513-1.343-.513-1.026 0-1.975.737-1.975 2.26v4.358h-1.417v-6.695z"/>
    </g>
</svg>
