<svg xmlns="http://www.w3.org/2000/svg" width="44" height="50" viewBox="0 0 44 50">
    <path fill="#FFF" fill-rule="evenodd" d="M32.08 22.391h11.555l.002 21.9C38.227 48.074 31.972 50 25.015 50 10.26 50 0 40.083 0 25.815 0 11.118 10.679.632 25.509.632c3.625 0 6.893.574 9.866 1.735V0h7.438v16.013h-4.705l.43-.45 3.442-3.583-5.29 1.927 3.477-4.42-9.868 3.26c-1.543-.593-3.128-.844-4.862-.844-6.959 0-12.016 5.564-12.016 13.128 0 3.46 1.126 6.847 2.837 9.237l-2.833 7.412 5.102-5.163c2.17 1.72 4.956 2.71 8.035 2.71 1.897 0 3.09-.286 4.918-1.07V31.31h-7.964l8.564-8.918zm-11.846.236l2.718-1.053-4.764 12.195 16.74-17.517-4.114 1.438 3.8-4.64-10.447 3.512-3.933 6.065zm-4.551 15.575c.75-1.938 5.875-15.042 5.875-15.042l-3.377 1.312 5.529-8.541 14.024-4.726-3.764 4.605 4.71-1.67-22.997 24.062z"/>
</svg>
