<svg xmlns="http://www.w3.org/2000/svg" width="120" height="20" viewBox="0 0 120 20">
    <g fill="#FFF" fill-rule="evenodd">
        <path d="M13.094 14.45c0-.476-.083-.937-.247-1.385a3.61 3.61 0 0 0-1.77-2.003 2.888 2.888 0 0 0-1.33-.315h-7.46v7.378h7.268c.494 0 .956-.1 1.386-.302a3.69 3.69 0 0 0 1.124-.81c.32-.337.57-.73.754-1.178.182-.448.275-.91.275-1.386zM2.288 1.997v7.185H8.98c.475 0 .919-.1 1.33-.3.41-.202.763-.468 1.056-.796a3.759 3.759 0 0 0 .933-2.496c0-.494-.08-.96-.234-1.399a3.41 3.41 0 0 0-.658-1.139 3.32 3.32 0 0 0-1.001-.768 2.79 2.79 0 0 0-1.261-.287H2.288zm12.725 12.78c0 .732-.146 1.404-.438 2.017a5.094 5.094 0 0 1-1.18 1.59 5.299 5.299 0 0 1-1.728 1.042 5.964 5.964 0 0 1-2.112.37H.368V.325h9.38c.676 0 1.29.146 1.837.438.549.293 1.015.672 1.399 1.138.384.467.68.998.891 1.592.21.594.316 1.192.316 1.796 0 .987-.248 1.888-.74 2.702a4.583 4.583 0 0 1-2.058 1.823c1.116.33 1.997.942 2.647 1.838.649.896.973 1.939.973 3.127zM47.667 10.912h6.802a3.26 3.26 0 0 0 1.55-.37c.466-.248.863-.582 1.192-1.002.33-.42.585-.895.768-1.426.182-.53.275-1.088.275-1.673s-.105-1.147-.316-1.687a4.668 4.668 0 0 0-.85-1.412 4.058 4.058 0 0 0-1.262-.96 3.406 3.406 0 0 0-1.521-.356h-6.638v8.886zm-1.92 8.886V.325h8.666c.842 0 1.614.179 2.32.535.702.356 1.31.822 1.823 1.4a6.406 6.406 0 0 1 1.192 1.96c.284.731.426 1.472.426 2.221a6.551 6.551 0 0 1-1.193 3.799 5.33 5.33 0 0 1-1.358 1.316c-.53.357-1.125.6-1.783.727l4.773 7.515h-2.167l-4.58-7.186h-6.199v7.186h-1.92zM84.18 19.798L77.213 2.71l-6.938 17.088h-2.003L76.39.324h1.674l8.118 19.474zM19.83 2.025h12.547v-1.7H19.83zM19.83 10.767h12.547V9.066H19.83zM19.829 19.798h12.795v-1.7H19.829zM98.36 19.798l6.09-16.933 6.09 16.933h1.985L119.547.274h-1.956l-6.059 16.844L105.474.274h-2.048l-6.058 16.844L91.31.274h-1.956l7.022 19.524z"/>
    </g>
</svg>
