<svg xmlns="http://www.w3.org/2000/svg" width="141" height="30" viewBox="0 0 141 30">
    <path fill="#FFF" fill-rule="evenodd" d="M0 0h14.271v14.271H0V0zm15.729 0H30v14.271H15.73c-.002-4.757-.001-9.514-.001-14.271zm112.967 5.438c1.315-.857 3.015-.936 4.498-.528.013.88.002 1.763.006 2.645-.705-.31-1.533-.513-2.275-.208-.588.233-.938.836-1.03 1.44-.11.765-.038 1.54-.057 2.31 1.505.004 3.01.001 4.516.002.01-.977-.012-1.955.013-2.932 1.023-.292 2.035-.618 3.054-.925.008 1.287-.012 2.576.01 3.864 1.018-.015 2.036-.003 3.055-.007v2.506c-1.022-.042-2.045-.01-3.066-.014.004 1.44 0 2.882.001 4.323.017.798-.042 1.6.051 2.396.057.469.227.988.667 1.23.736.413 1.67.233 2.347-.22v2.532c-.882.383-1.868.5-2.822.432-.905-.067-1.843-.396-2.433-1.116-.683-.814-.858-1.915-.872-2.945-.008-2.212 0-4.423-.004-6.636-1.506 0-3.012-.001-4.517.001V24h-3.087c0-3.47-.004-6.939.002-10.408-.716-.014-1.433.003-2.148-.011.002-.824.006-1.649-.002-2.473.712-.017 1.425-.01 2.14-.005.052-1.095-.116-2.222.212-3.29.277-.963.892-1.832 1.74-2.375zm-66.084.18c.622-.095 1.296.118 1.708.605a1.76 1.76 0 0 1 .214 2.005c-.396.703-1.282 1.03-2.054.86-.802-.144-1.47-.889-1.433-1.72-.024-.873.708-1.653 1.565-1.75zM38.957 6h4.489c1.397 3.548 2.805 7.092 4.203 10.64.358.887.692 1.784 1.067 2.665 1.797-4.434 3.62-8.856 5.404-13.295 1.44-.023 2.88-.005 4.32-.008C58.435 12 58.436 18 58.437 23.999c-1.039-.002-2.077.009-3.115-.006.012-4.427 0-8.854.006-13.282a7.703 7.703 0 0 0-.02-.597 2.38 2.38 0 0 0-.161.288c-1.784 4.532-3.602 9.05-5.375 13.587-.74.026-1.479.002-2.219.014-1.84-4.532-3.657-9.074-5.488-13.61a3.425 3.425 0 0 0-.155-.274c-.038 1.94-.006 3.882-.016 5.821 0 2.687-.002 5.373 0 8.06-.98.002-1.959 0-2.938 0 0-6-.002-12 0-18zm32.149 5.087a8.45 8.45 0 0 1 4.585.014 3.7 3.7 0 0 1 .88.367c-.017.983 0 1.967-.01 2.95-.994-.76-2.257-1.241-3.522-1.082a3.624 3.624 0 0 0-2.564 1.424c-.772 1.006-.95 2.343-.818 3.573.1.964.498 1.926 1.248 2.565.778.692 1.869.937 2.887.86 1.007-.116 1.956-.542 2.77-1.137.008.932-.005 1.864.007 2.795-1.262.751-2.775.945-4.22.874-1.477-.078-2.95-.638-4.02-1.677-1.162-1.12-1.793-2.718-1.868-4.318-.075-1.664.263-3.4 1.22-4.789.803-1.185 2.058-2.025 3.425-2.419zm20.912-.222c1.48-.188 3.043-.104 4.418.521a5.458 5.458 0 0 1 2.696 2.725c.572 1.269.71 2.693.614 4.069-.095 1.343-.517 2.689-1.357 3.756-.86 1.133-2.156 1.901-3.544 2.187a8.864 8.864 0 0 1-3.613-.004c-1.42-.303-2.734-1.127-3.566-2.325-.977-1.389-1.255-3.155-1.13-4.818.083-1.412.522-2.835 1.424-3.942.987-1.24 2.502-1.973 4.058-2.169zm.92 2.45c-.738.041-1.483.29-2.03.801-.755.683-1.1 1.702-1.193 2.692-.102 1.088-.028 2.236.47 3.229.386.77 1.096 1.375 1.934 1.596.823.213 1.718.195 2.516-.111.681-.266 1.221-.826 1.516-1.49.446-.984.49-2.09.434-3.152-.076-.97-.352-1.988-1.065-2.69-.667-.674-1.654-.936-2.582-.875zm11.884-2.424c1.427-.251 2.92-.067 4.272.445v2.837a5.439 5.439 0 0 0-3.241-.958c-.577.023-1.211.267-1.474.816-.21.542-.065 1.254.447 1.578.875.586 1.92.834 2.826 1.359.714.401 1.407.926 1.768 1.682.68 1.416.392 3.287-.803 4.343-1.14 1.066-2.784 1.361-4.295 1.304-1.073-.069-2.151-.28-3.138-.72.004-.995-.006-1.989.005-2.983a6.75 6.75 0 0 0 2.8 1.208c.706.115 1.473.12 2.13-.195.63-.313.743-1.207.369-1.754-.35-.422-.863-.654-1.347-.882-.91-.409-1.866-.75-2.664-1.364-.562-.438-.987-1.055-1.153-1.75-.247-1.027-.17-2.183.427-3.08.681-1.044 1.865-1.671 3.07-1.886zm11.797-.03c1.54-.191 3.175-.088 4.581.622 1.226.613 2.176 1.72 2.651 3.001.371.98.502 2.037.48 3.08.003 1.559-.418 3.158-1.396 4.394-.916 1.197-2.316 1.974-3.795 2.219-1.446.234-2.973.173-4.347-.368a5.72 5.72 0 0 1-3.136-3.042c-.61-1.403-.675-2.982-.485-4.481.2-1.5.879-2.965 2.036-3.962.948-.832 2.169-1.304 3.41-1.463zm.833 2.456c-.854.048-1.7.416-2.253 1.081-.605.713-.865 1.653-.935 2.57-.073.945 0 1.925.366 2.81.304.742.882 1.387 1.628 1.703.69.297 1.469.35 2.208.24.688-.101 1.355-.43 1.803-.97.445-.538.68-1.215.798-1.894.15-.911.151-1.85-.026-2.756-.156-.774-.498-1.542-1.116-2.054-.67-.589-1.602-.79-2.473-.73zm-33.98-2.02c.853-.512 1.935-.554 2.865-.242-.004 1.03 0 2.06-.002 3.089a3.28 3.28 0 0 0-2.086-.49c-.876.099-1.57.772-1.93 1.543-.392.817-.465 1.741-.44 2.634V24h-3.043c-.003-4.298.003-8.596-.003-12.894 1.016-.013 2.032-.008 3.047-.003-.004.738 0 1.476-.002 2.215.33-.803.82-1.583 1.595-2.02zm-22.145-.194c1.023-.004 2.048-.014 3.071.006-.012 4.296 0 8.594-.005 12.891h-3.064c-.003-4.299 0-8.597-.002-12.897zM0 15.728c4.757.001 9.514-.001 14.271.001V30H0V15.728zm15.73.001H30V30H15.729V15.73z"/>
</svg>
