<svg xmlns="http://www.w3.org/2000/svg" width="92" height="70" viewBox="0 0 92 70">
    <path fill="#FFF" fill-rule="evenodd" d="M51.765 38.778l-.118-.025c-.06-.012-.117-.025-.177-.036a22.941 22.941 0 0 1-3.382-1.009c-2.377-.912-4.665-2.239-6.908-4a7.117 7.117 0 0 1-.137-.106c-.074-.059-.149-.117-.223-.178-.103-.085-.21-.17-.314-.258-.027-.02-.054-.044-.08-.065l-.042-.037-.023-.017a36.491 36.491 0 0 1-1.18-1.03 44.15 44.15 0 0 1-2.505-2.475 8.304 8.304 0 0 0-.134-.14l-.085-.084-.104-.104-.088-.087-.004-.004a7.54 7.54 0 0 1-.096-.088 7.414 7.414 0 0 0-.193-.177c-.015-.014-.03-.029-.046-.042l-.135-.118a.093.093 0 0 1-.006-.005l-.002-.001-.013-.01.013.01-.013-.011c-1.288-1.095-2.244-1.355-2.646-1.417-.29-.044-.54-.03-.724.04-.133.051-.177.098-.18.268-.01.727 1.023 2.248 3.91 3.459.393.165.802.316 1.22.458a41.06 41.06 0 0 0 2.45 2.23l.03.025.026.024.092.074.235.193.082.067.199.159.174.137c1.805 1.416 3.61 2.542 5.477 3.42l-.08.002c-.623.014-1.249.01-1.877-.012l-.152-.005a33.067 33.067 0 0 1-.498-.025c-.097-.006-.193-.01-.29-.017a25.079 25.079 0 0 1-.804-.063 34.346 34.346 0 0 1-.839-.088c-.104-.012-.208-.023-.312-.037a27.903 27.903 0 0 1-.769-.107c-2.28-.352-4.408-.937-6.325-1.74l-.002-.001h.002a.068.068 0 0 1-.005-.002h-.001a2.115 2.115 0 0 1-.008-.003c-4.44-1.866-7.065-4.936-7.023-8.213.03-2.24 1.341-4.134 3.425-4.945 1.03-.4 2.15-.512 3.328-.33.468.071.935.19 1.405.35.132.045.266.092.399.145.699.274 1.398.643 2.085 1.102.094.063.188.126.283.193a14.916 14.916 0 0 1 2.008 1.71c.106.105.21.212.314.322l.05.053.005.002c.195.21.39.411.586.61a34.959 34.959 0 0 0 2.605 2.427 26.54 26.54 0 0 0 2.88 2.095l.26.16c.154.094.31.184.465.274.043.024.088.048.132.074.156.087.312.173.47.256l.081.044c.194.1.387.2.58.292l.032.014a18.308 18.308 0 0 0 2.487.983l.005.002c.21.065.418.126.63.183l.019.006c.2.054.402.105.606.153.012 0 .022.004.034.006.15.036.302.068.453.099h.001l.132.026.113.022c.196.037.392.071.589.102.07.012.143.02.22.031l.046.007.192.025c.021.001.046.005.07.008l.17.019.127.011c.034.006.073.008.11.013a29.629 29.629 0 0 0 4.22.096c-.033.001 2.342-.21 3.092-.483 0 0 .835-.19 1.255-.125a2.546 2.546 0 0 1 2.006 1.645 2.551 2.551 0 0 1-1.52 3.262c-1.251.454-2.852.682-4.464.771a34.721 34.721 0 0 1-5.858-.19h-.008c-.073-.011-.141-.018-.208-.03a15.37 15.37 0 0 1-.697-.11l-.184-.032a12.408 12.408 0 0 1-.274-.053l-.124-.024zM61.95 58.736c-1.1-2.083.22-4.585.511-5.034 1.108-1.696 2.315-2.418 3.656-2.518.117-.011.25-.017.394-.017.46 0 1.424.222 1.53.625.068.286-.074.752-.319 1.063-.163.207-.342.301-.48.258-.265-.087-.619-.188-.988-.188-.19 0-.364.026-.516.08-.357.122-.68.309-.932.54a4.051 4.051 0 0 0-1.21 2.023c-.146.56-.282 1.222-.22 1.885.025.274.084.61.294.746a.42.42 0 0 0 .247.075c.362 0 .806-.315 1.177-.604.793-.637 1.48-1.556 2.09-2.813.059-.115.11-.244.162-.376.217-.532.444-1.085 1.062-1.105a.94.94 0 0 1 .797.408c.187.259.163.529.112.88-.251 1.631-.067 2.784.54 3.424.188.194.434.293.727.293.32 0 .678-.128.96-.336.425-.311.812-.791 1.192-1.47.37-.673.669-1.437.885-2.28.05-.2.095-.401.14-.635l.03-.138-.192-.105c-.203-.103-.583-.3-.828-.528-.41-.37-.597-.834-.52-1.274.117-.666.776-1.081 1.304-1.237.607-.177 1.183 0 1.553.45.203.235.34.546.417.941a.76.76 0 0 1 .016.138c.011.242.058.361.163.407.282.114 1.083.266 1.482.277l.085.002.042-.074c.033-.062.07-.127.11-.189.216-.339.44-.59.688-.765a1.372 1.372 0 0 1 1.75.138c.387.38.724 1.006.513 1.62-.138.417-.51.738-1.045.898-.184.059-.74.134-.83.141a.232.232 0 0 0-.118.036l-.098.257c-.106.345-.193.71-.258 1.076-.122.662-.244 1.426-.068 2.102.02.078.078.323.37.323.087 0 .19-.02.304-.064.306-.113.61-.318.904-.599.78-.764 1.295-1.818 1.7-2.743 1.325-3.047 1.95-6.419 2.39-9.314.11-.726.2-1.388.269-2.002.31.01 1.18.089 1.715.189a51.262 51.262 0 0 1-.951 5.718l-.096.448.332-.316a75.27 75.27 0 0 1 3.06-2.768 22.905 22.905 0 0 1 1.622-1.265c.807-.562 1.412-.609 1.85-.144.195.212.292.448.278.69-.033.559-.552 1.078-1.105 1.558-1.402 1.207-2.917 2.34-4.381 3.437l-.597.45a1.707 1.707 0 0 0-.103.071 11.98 11.98 0 0 1-.849.637c-.038.032-.08.06-.118.095l-.093.069c-.024.023-.054.048-.087.078l-.054.047c-.19.162-.403.342-.383.593.008.192.045.381.114.608.173.647.503 1.296.973 1.939.625.85 1.337 1.491 2.116 1.902 1.354.716 2.424.867 3.081.867.102 0 .307-.01.436-.015.09.523.112 1.407.084 1.674-.091.01-.251.019-.382.024a8.403 8.403 0 0 1-7.35-4.432l-.138-.255-.118.265c-1.277 2.866-2.813 4.317-4.56 4.317-.064 0-.124-.002-.196-.008-.6-.037-1.04-.28-1.356-.747-.795-1.178-.485-3.492-.083-4.755l.049-.157-.159-.028a14.595 14.595 0 0 1-.858-.165l-.141-.03-.03.142c-.193.934-.49 1.829-.888 2.666-.562 1.19-1.195 2.032-1.938 2.586-.916.68-2.19.878-3.11.473-1.034-.456-1.52-1.455-1.742-2.21l-.079-.267-.168.223c-1.032 1.334-2.102 2.11-3.182 2.3a2.316 2.316 0 0 1-.409.034 2.12 2.12 0 0 1-1.95-1.236zm-12.44-8.602a24.5 24.5 0 0 0 1.42-2.45c.293-.603.66-1.353.719-2.106.013-.178.032-.44-.257-.504-.3-.057-.512-.013-.77.2-.688.588-1.119 1.509-1.5 2.405-.554 1.303-.995 2.766-1.344 4.46l-.132.634.384-.518c.427-.583.845-1.173 1.24-1.76l.045-.067c.037-.061.094-.156.194-.294zm-27.465 5.907l.138-.097c.815-.547 1.719-1.23 2.262-2.112.148-.245.338-.608.25-.925-.067-.243-.325-.377-.725-.377a1.21 1.21 0 0 0-.188.013c-.797.082-1.74.634-2 1.521-.139.484-.101 1.058.108 1.616.028.076.054.143.086.211l.069.15zm-12.42 2.39l.363-.052-.303-.205c-1.049-.703-2.046-1.562-2.926-2.324l-.73-.623c-.889-.765-1.897-1.626-3.102-1.674H2.87c-.426 0-.75.16-.937.466-.265.428-.237 1.124.066 1.727.449.882 1.32 1.631 2.586 2.216l.051.027c.867.392 1.905.593 3.082.593.591 0 1.214-.05 1.908-.151zm2.64-7.064l.213-.236-.32.001c-.823.01-1.877.08-2.73.546-.233.122-.361.254-.39.391-.034.113-.005.237.095.378.216.296.463.442.76.442.097 0 .209-.019.323-.05.882-.246 1.591-.96 2.05-1.472zm40.45 7.094c.667-.48 1.835.565 1.09 1.231-.459.348-.82.617-1.632.6-.063 0-.126 0-.19-.01-.707-.078-1.232-.341-1.555-.782-.462-.64-.357-1.457-.21-2.1.034-.158.087-.335.148-.537.285-.969.678-2.292-.532-2.67-.911-.27-1.625.628-1.865.984-.565.83-.816 2.38-.745 4.623.006.202-.033.351-.105.422-.031.038-.075.054-.136.054-.149 0-1.478-.017-1.487-.648 0 0-.013-.892-.011-1.348v-.313l-.235.207c-1.153 1.016-2.306 1.639-3.43 1.856-.258.05-.533.075-.816.075-1.073 0-2.004-.402-2.622-1.137l-.12-.138-.105.148c-.663.96-1.795 1.42-2.868 1.134-.854-.228-1.475-.944-1.754-2.026l-.07-.281-.178.233c-.547.721-1.164 1.277-1.829 1.65a3.888 3.888 0 0 1-1.835.49c-.798 0-1.491-.285-2.012-.83l-.041-.04h-.059c-.07 0-.112.038-.146.07l-.068.056c-.07.045-.145.087-.223.125a2.222 2.222 0 0 1-.47.178c-.376.093-.769.108-1.102.113a5.549 5.549 0 0 1-3.72-1.39l-.064-.067a.267.267 0 0 0-.07-.06l-.058-.026-.232.102a15.587 15.587 0 0 1-1.737.714c-1.563.523-3.2.795-4.863.805l-.056.005c-.427 0-.851-.038-1.265-.113a2.715 2.715 0 0 1-.382-.1c-.277-.077-.577-.153-.808-.086-.851.24-1.707.417-2.534.525-1.835.24-3.451.154-4.848-.257-1.45-.423-2.748-1.24-3.658-2.293C.105 56.337-.272 54.835.2 53.59c.402-1.07 1.46-1.762 2.69-1.762.084 0 .18.007.262.01 1.567.131 2.836 1.1 4.106 2.17.236.205.476.413.717.613 1.005.866 2.04 1.766 3.212 2.474.403.243.765.43 1.106.579l.033.016c.112.06.178.06.27.024l.285-.1c.196-.069.38-.141.567-.218a12.065 12.065 0 0 0 2.094-1.083c1.001-.65 2.573-1.945 1.911-3.277-.206-.416-.596-.77-1.199-1.082a5.991 5.991 0 0 0-1.024-.413 6.23 6.23 0 0 0-.55-.147l-.065-.018a.234.234 0 0 0-.082-.02l-.122.068-.025.032c-.057.073-.11.155-.168.23-1.016 1.394-2.116 2.31-3.27 2.73-.333.122-.67.183-1.003.183-.95 0-1.814-.518-2.38-1.422-.62-1-.298-2.154.796-2.868.936-.607 2.22-.9 3.929-.9h.197c.204.004.758.034.992.054l.099.007.04-.09c.109-.242.434-1.008.535-1.363.216-.796.25-1.5.097-2.094-.35-1.382-1.756-1.925-2.852-1.979-2.305-.114-4.39 1.324-5.263 3.562a8.153 8.153 0 0 0-.467 1.907c-.048.395-.075.767-.084 1.12-.439.132-1.224.195-1.804.195-.147 0-.244-.005-.308-.01.017-1.724.39-4.123 2.05-5.995 1.367-1.561 3.505-2.529 5.575-2.529a5.7 5.7 0 0 1 2.638.617c1.097.566 1.869 1.503 2.17 2.63.41 1.53-.048 3.123-.51 4.191l-.06.147.156.041c1.022.284 3.446 1.178 3.797 3.344.35 2.197-1.68 3.866-2.922 4.667l-.523.338.62-.08a13.436 13.436 0 0 0 3.953-1.137l.133-.064-.065-.13a4.872 4.872 0 0 1-.464-1.484c-.192-1.37.304-2.677 1.333-3.497.76-.61 1.74-.975 2.622-.975.557 0 1.051.14 1.471.416.853.547 1.2 1.622.868 2.674-.46 1.442-1.835 2.555-2.984 3.356l-.17.12.176.114a3.963 3.963 0 0 0 2.472.63c.504-.04.778-.249.948-.728l.01-.026-.006-.031c-.039-.436-.006-.92.095-1.438.419-2.082 1.766-3.786 3.519-4.449a4.4 4.4 0 0 1 1.49-.273c.56 0 1.46.211 1.55.366.187.328.13.804 0 1.109-.141.333-.36.46-.72.379-.757-.16-1.244-.14-1.756.06-.676.264-1.308.804-1.729 1.49a4.915 4.915 0 0 0-.688 1.926c-.12.993.109 1.642.656 1.876.136.068.298.102.474.102.579 0 1.134-.37 1.409-.593.768-.609 1.39-1.524 1.901-2.79.15-.375.285-.763.397-1.154.094-.336.25-.547.495-.674a.932.932 0 0 1 1.335.646c.042.253.011.521-.033.815-.022.13-.036.256-.046.376-.026.344-.042.67-.047.997 0 .438.014.912.106 1.383.084.427.254.998.776.998a.947.947 0 0 0 .231-.033c.51-.132.758-.736.899-1.182.09-.276.152-.56.217-.84l.02-.113c.065-.287.128-.589.224-.872.486-1.5 1.236-2.659 2.232-3.445.732-.574 1.666-.915 2.5-.915.59 0 1.112.157 1.553.469.194.137.32.366.36.65.05.337-.034.698-.223.934a.43.43 0 0 1-.347.18c-.222 0-.462-.148-.66-.266a1.344 1.344 0 0 0-.73-.216c-1.017 0-1.98 1.09-2.392 1.737-.396.621-.697 1.696-.497 2.548.111.474.355.826.724 1.046.26.158.57.237.913.237.627 0 1.26-.262 1.681-.483.582-.306 1.153-.73 1.742-1.289.252-.235.519-.512.84-.87l.075-.088c.1-.096.235-.233.249-.387.016-.183.038-.364.061-.576a32.29 32.29 0 0 1 .951-4.897c.525-1.856 1.052-3.19 1.719-4.314.848-1.444 1.792-2.175 2.804-2.175 1.066.015 1.849.493 2.148 1.313.138.376.174.823.104 1.326-.127.906-.508 1.754-.859 2.469-.572 1.17-1.32 2.4-2.356 3.865l-.117.17.198.048c1.346.338 2.217 1.501 2.168 2.894-.02.565-.147 1.114-.265 1.581l-.014.035c-.014.04-.028.095-.04.146-.368 1.168-.253 1.269-.181 1.331.125.203.529.242.84-.036zm10.508-8.978c.72-.987 1.027-2.79-.283-4.21-.752-.813-1.818-1.287-2.655-1.287-.287 0-.562.053-.82.16-1.52.636-2.51 3.161-2.525 6.531-.044 1.483.812 6.57 1.035 6.968.193-1.248.287-3.623.255-5.045-.29-.064-.756-.117-1.061-.22.014-.632.421-1.34.681-1.588.09-.081.264.007.264.007-.086-.74-.218-1.4-.4-1.917-.316-1.113 1.338-1.81 1.683-.548.416 1.252.442 1.718.526 2.723 1.422-.072 2.715-.77 3.3-1.574zm.899-5.225c1.616 1.748 1.753 4.225.34 6.16-.905 1.242-2.502 2.234-4.458 2.334.028 2.222-.228 4.636-.59 5.952-.113.421-.416 1.523-1.364 1.523a.737.737 0 0 1-.094-.005c-.908-.067-1.413-1.164-1.783-2.841-.26-1.185-.596-2.851-.792-4.669-.78-7.207 1.852-9.351 3.37-9.988 1.73-.725 3.84-.123 5.37 1.534zm-40.045 23.69s.045-.656.08-1.074c.013-.167.04-.344.056-.52.027-.287.057-.571-.129-.661a.534.534 0 0 0-.375-.015c-.31.106-.507.422-.649.72-.047.096-.134.284-.147.39l-.127 1.564s-.018.09-.424.095c-.428.007-.363-.347-.36-.41l.154-1.753.034-.455c.022-.262-.214-.208-.393-.208 0 0-.063-.19-.042-.317.042-.264.425-.403.764-.362a.54.54 0 0 1 .499.507c.013.12-.014.382-.014.382s.514-1.045 1.402-.966c.495.043.676.478.597 1.227-.04.367-.143 1.64-.143 1.64-.005.075-.005.172.096.184h.267c.109.363-.233.528-.576.528-.17 0-.595.006-.57-.495zm-9.947-1.24h1.45l-.55-2.143-.9 2.142zm-1.486 1.643l2.052-4.747s.244-.145.522-.12c.326.025.35.288.433.595 0 0 1.122 4.045 1.137 4.205.009.068-.2.185-.398.175 0 0-.325.036-.416-.297l-.211-.788h-1.925l-.348.82c-.043.102-.113.315-.61.26-.161-.015-.236-.103-.236-.103zm28.439-2.552s-.669-.398-1.127-.22c-.12.044-.234.12-.255.255-.045.315.333.477.514.574.42.22.884.45.836 1.112-.042.602-.46 1.004-1.144 1.058-.56.043-1.148-.192-1.218-.602-.048-.268.161-.468.161-.468.256.23.785.49 1.262.322.145-.052.286-.177.253-.369-.045-.246-.555-.434-.796-.583-.283-.18-.525-.389-.588-.793-.09-.612.315-1.237 1.272-1.262.542-.014 1.243.386.83.976zM36.34 63.36c.157-.03.397.046.406.263.003.084-.194.182-.29.258-.224.17-.412.348-.655.497-.115.07-.272.154-.422.134-.111-.018-.243-.15-.233-.235.008-.062.177-.16.277-.246.111-.097.204-.186.276-.25.197-.168.421-.375.64-.42zm-.713 3.202c.22-.087.519-.264.567-.495.079-.386-.229-.557-.554-.522-.522.054-.833.703-.858 1.223.301-.053.57-.095.845-.206zm-1.125 1.678c-.72-.693-.573-2.308.212-2.978.399-.34 1.126-.518 1.66-.258.288.139.49.45.518.773.114 1.286-2.066 1.498-2.066 1.498.08.336.268.57.654.598.298.02.694-.076.932-.175.091-.038.213-.115.213-.115.42.613-.395.93-1.007.995-.71.078-1.116-.338-1.116-.338zM49.1 65.287c.017-.22.154-.3.491-.3.036-.891.175-1.578 1.049-1.58h.143c.253.017.628.038.605.42-.01.192-.073.274-.108.312-.034.039-.573-.06-.754.101-.149.133-.132.45-.146.747h.726c.107.18.055.518-.137.601-.145.064-.655.04-.655.04-.069.82-.103 1.333-.162 2.049-.02.224-.02.594-.102.715-.07.1-.225.128-.36.128h-.086c-.122 0-.289-.038-.312-.104.076-.977.171-1.814.24-2.784h-.388s-.059-.127-.044-.345zm-21.913.324c-.507.059-.754.737-.763 1.309-.008.508.158 1.042.704.905.18-.046.3-.203.405-.378.1-.167.218-.36.243-.558l.086-.904c-.127-.215-.324-.414-.675-.374zm-1.516 1.4c.014-.513.115-1.02.365-1.415.235-.368.578-.65 1.065-.705a.934.934 0 0 1 .83.342c.03-.397.074-.884.103-1.233.026-.307.023-.508.299-.546.231-.031.463.101.463.101-.1 1.269-.225 2.487-.33 3.782-.014.174-.051.47 0 .53.083.075.36.043.36.043.172.488-.374.681-.777.533-.264-.096-.346-.39-.362-.643-.237.516-.845 1.003-1.451.634 0 0-.596-.314-.565-1.422zm35.552-2.03c.104.342-.07.53-.229.72l-1.727 2.112c-.017.02-.022.035.012.038h1.782c.076.27.035.639-.277.653h-2.507s-.147-.317.025-.538l1.82-2.25c-.003.003.055-.044-.008-.044h-1.483c-.077-.256-.067-.655.284-.69h2.308zm15.797.65c-.31.184-.497.589-.544 1.103-.05.554.078 1.211.688 1.06.217-.056.348-.255.42-.368.088-.133.203-.327.225-.522l.085-.944c-.02-.126-.188-.316-.358-.372-.307-.105-.516.043-.516.043zm-1.303 1.187c.048-1.01.607-1.887 1.46-1.948a.814.814 0 0 1 .696.277c.029.032.08.098.08.098-.014-.458.443-.443.757-.274l-.255 2.635c-.007.072-.02.273.148.273h.263c.179.708-.825.723-1.057.257a.883.883 0 0 1-.088-.372c-.198.365-.484.74-1.017.76 0 0-1.07.04-.987-1.706zm-11.833-1.187c-.31.184-.498.589-.545 1.103-.049.554.08 1.211.687 1.06.22-.056.35-.255.422-.368.086-.133.202-.327.222-.522l.087-.944c-.023-.126-.188-.316-.357-.372-.309-.105-.516.043-.516.043zm-1.304 1.187c.048-1.01.606-1.887 1.46-1.948a.812.812 0 0 1 .696.277c.03.032.077.098.077.098-.01-.458.446-.443.76-.274l-.256 2.635c-.005.072-.02.273.15.273h.265c.176.708-.827.723-1.062.257a.85.85 0 0 1-.083-.372c-.2.365-.485.74-1.02.76 0 0-1.07.04-.987-1.706zm-31.896-1.187c-.312.184-.497.589-.544 1.103-.05.554.077 1.211.686 1.06.22-.056.349-.255.423-.368.085-.133.201-.327.222-.522l.086-.944c-.022-.126-.187-.316-.357-.372-.31-.105-.516.043-.516.043zm-1.305 1.187c.05-1.01.608-1.887 1.462-1.948a.812.812 0 0 1 .694.277c.03.032.08.098.08.098-.014-.458.446-.443.759-.274l-.256 2.635c-.008.072-.02.273.148.273h.265c.178.708-.827.723-1.06.257a.859.859 0 0 1-.085-.372c-.198.365-.483.74-1.019.76 0 0-1.07.04-.988-1.706zm28.277-3.043c.073.175.046.44-.076.572-.146.153-.422.165-.582.099-.274-.113-.235-.561-.097-.726.08-.093.207-.152.41-.146.213.005.313.125.345.2zm-.505 4.712c-.254 0-.517-.089-.529-.358-.012-.267.01-.49.03-.736l.107-1.15c.012-.285.07-.491-.015-.541-.074-.046-.299-.03-.299-.03s-.041-.08-.03-.269c.01-.127.101-.288.228-.352.277-.134.714-.074.845.123.13.194.073.523.043.87l-.137 1.565c-.017.266.046.295.116.297h.227s.23.581-.586.581zm10.456-2.878c-.252.043-.452.292-.558.516-.242.506-.364 1.872.528 1.648.242-.06.43-.334.533-.552.081-.168.111-.204.13-.423l.07-.793c-.123-.243-.312-.458-.703-.396zm.772-.303c.005-.21.063-.35.243-.384 0 0 .104-.022.276.001.187.028.22.102.22.102 0 .008-.13 1.394-.173 2.063-.043.697-.022 1.436-.222 1.892-.305.681-1.188 1.218-2.221.949-.258-.069-.539-.326-.585-.581-.04-.22.042-.338.157-.459.236.232.72.416 1.206.355.773-.094.95-.549.896-1.565-.19.384-.436.77-.898.839a.9.9 0 0 1-.904-.403c-.335-.504-.294-1.39-.102-2 .214-.687.697-1.176 1.36-1.203.497-.022.747.394.747.394zm-48.93.452c-.425.416-.557 1.866.029 2.107a.74.74 0 0 0 .619-.058c.283-.179.392-.658.414-1.092.032-.641-.118-1.225-.743-1.125a.618.618 0 0 0-.32.168zm-1.113.95c.088-.844.525-1.775 1.632-1.795 1.223-.023 1.34 1.169 1.34 1.55 0 .707-.245 1.513-.792 1.865-.431.277-1.097.335-1.545.086 0 0-.775-.37-.635-1.705zm24.817-.132c.22-.088.519-.265.566-.494.08-.384-.229-.557-.552-.525-.524.055-.833.706-.86 1.223.3-.052.57-.093.846-.204zm-1.124 1.678c-.721-.694-.573-2.31.21-2.978.398-.34 1.126-.518 1.66-.26a.98.98 0 0 1 .52.775c.113 1.285-2.068 1.5-2.068 1.5.078.333.269.568.656.594.297.021.693-.073.93-.173.091-.038.212-.116.212-.116.421.613-.394.928-1.003.997-.71.075-1.117-.339-1.117-.339zm10.682-1.678c.22-.088.52-.265.567-.494.08-.384-.23-.557-.553-.525-.525.055-.835.706-.86 1.223.3-.052.57-.093.846-.204zm-1.127 1.678c-.719-.694-.57-2.31.214-2.978.398-.34 1.124-.518 1.66-.26.288.142.49.453.517.775.115 1.285-2.064 1.5-2.064 1.5.077.333.265.568.653.594.298.021.694-.073.932-.173.091-.038.213-.116.213-.116.422.613-.395.928-1.006.997-.71.075-1.119-.339-1.119-.339zm2.93-.66l.345-3.974c.112-.117.293-.117.378-.117.4 0 .365.23.327.646-.078.827-.278 3.234-.278 3.234s-.044.364.185.39l.634.009c.1.494-.213.738-.849.747-.834.01-.754-.734-.741-.934zm16.137-1.836c-.424.416-.557 1.866.03 2.107a.743.743 0 0 0 .62-.058c.281-.179.39-.658.414-1.092.03-.641-.119-1.225-.745-1.125a.609.609 0 0 0-.319.168zm-1.112.95c.088-.844.524-1.775 1.632-1.795 1.221-.023 1.34 1.169 1.34 1.55 0 .707-.246 1.513-.79 1.865-.432.277-1.098.335-1.546.086 0 0-.777-.37-.636-1.705zm3.575 1.478l.156-1.877c.022-.227.065-.557-.007-.637-.071-.054-.346-.028-.346-.028s-.042-.146-.024-.3c.045-.375.796-.525 1.084-.248.175.166.157.359.133.669.21-.33.493-.764.939-.868.16-.04.32-.02.45.078.256.189.242.706.092.978-.128.228-.465.302-.715.123.014-.106.023-.25-.094-.303-.206-.093-.412.159-.486.272-.22.339-.267.502-.312 1.039-.038.46-.073.899-.104 1.302-.012.036-.073.089-.408.096-.405.007-.358-.296-.358-.296zm-27.953 0l.157-1.877c.02-.227.065-.557-.007-.637-.073-.054-.345-.028-.345-.028s-.042-.146-.025-.3c.045-.375.796-.525 1.084-.248.175.166.157.359.133.669.211-.33.492-.764.94-.868a.522.522 0 0 1 .449.078c.255.189.24.706.091.978-.126.228-.463.302-.712.123.011-.106.022-.25-.095-.303-.206-.093-.412.159-.486.272-.221.339-.268.502-.313 1.039-.039.46-.073.899-.104 1.302-.011.036-.073.089-.409.096-.405.007-.358-.296-.358-.296zm-9.184-39.323c-.017-.015-.032-.03-.05-.044l.05.044zm21.694-1.977l.003-.015a8.08 8.08 0 0 0 .05-.377c.006-.041.008-.082.013-.123l.023-.24.009-.147c.003-.068.008-.137.01-.203.003-.054.003-.106.003-.158a5.4 5.4 0 0 0 .001-.18c0-.055-.004-.11-.005-.164-.002-.053-.003-.107-.007-.16a3.285 3.285 0 0 0-.014-.168c-.004-.048-.006-.095-.013-.143l-.022-.17-.02-.127-.03-.172-.027-.114a3.155 3.155 0 0 0-.043-.171l-.028-.101a5.138 5.138 0 0 0-.055-.171l-.031-.088a3.805 3.805 0 0 0-.183-.415c-.012-.02-.022-.042-.033-.062a4.473 4.473 0 0 0-.097-.17l-.03-.049a3.999 3.999 0 0 0-.14-.204 4.496 4.496 0 0 0-.135-.17l-.019-.02c-.018-.023-.038-.043-.058-.064l.008-.01c1.213-1.42 2.119-2.897 2.703-4.393.092.07.182.14.27.213.004.006.011.01.017.016h.002l.137.119.012.012.075.069c1.686 1.534 3.416 4.311 2.711 9.049a2.1 2.1 0 0 1-.04.195 2.157 2.157 0 0 1-.046.171l-.004.023c-.018.093-.038.186-.059.279l-.028.127c-.023.093-.047.185-.072.278l-.033.12a12.799 12.799 0 0 1-.12.387c-.032.095-.064.19-.098.283l-.035.093c-.037.098-.074.195-.116.292-.007.02-.017.038-.025.058a9.477 9.477 0 0 1-.685 1.31l-.033.054a9.575 9.575 0 0 1-.235.351c-.054.08-.111.157-.169.235l-.08.108a8.678 8.678 0 0 1-.45.55c-.03.035-.061.068-.09.103a11.831 11.831 0 0 1-.497.517c-.318.04-.678.08-1.087.12l-.03.003-.092.004c-1.27.062-2.724.026-3.99-.097l-.1-.011-.089-.009-.203-.021c-.027-.005-.054-.007-.08-.01l-.27-.035c-.045-.007-.088-.012-.144-.022a20.47 20.47 0 0 1-.552-.095l-.244-.048c-.143-.03-.284-.059-.425-.092l-.061-.013a18.551 18.551 0 0 1-.546-.138l-.024-.007c-.187-.05-.372-.105-.556-.162l-.028-.01-.046-.012c-.272-.086-.544-.18-.816-.282l.135-.028a15.091 15.091 0 0 0 .896-.218 16.753 16.753 0 0 0 1.24-.385l.284-.103c.104-.04.204-.08.305-.122.083-.034.167-.067.249-.102.112-.05.222-.1.331-.152l.197-.09c.17-.085.337-.172.496-.261 1.818-1.019 2.865-2.32 3.108-3.865zm1.266 2.585a2.533 2.533 0 0 0 0 0zM55.324 7.463a2.492 2.492 0 0 1 .023.016c.07.043.139.087.205.133.068.045.133.09.198.136l.09.064c.085.061.168.124.25.185l.025.018c2.529 1.935 3.658 4.562 3.238 7.538l-.006.045a7.057 7.057 0 0 1-.037.222c-.005.04-.012.077-.019.116a12.005 12.005 0 0 1-.092.44l-.016.067a6.655 6.655 0 0 1-.124.466c-.07.246-.152.49-.24.732-.585 1.584-1.532 3.057-2.642 4.357-.224.262-.455.514-.69.762l-.09.093c-.091.096-.182.19-.275.28-.078.08-.162.16-.243.24a91.51 91.51 0 0 1-.173.167c-.021.022-.042.04-.062.06a22.15 22.15 0 0 1-.916.808c-.12.1-.243.199-.365.297-.02.015-.042.031-.061.047-.5.396-1.001.754-1.487 1.069-.031.02-.067.038-.1.059-1.47.937-2.969 1.602-4.307 1.885-.843.178-1.64.211-2.364.098-1.765-.271-2.702-1.312-3.103-1.909-.97-1.44-1.212-3.071-.682-4.597a4.9 4.9 0 0 1 .147-.372l-.002-.001.018-.036a4.046 4.046 0 0 1 .16-.33c.056-.106.115-.212.18-.316l.04-.063c.049-.081.103-.16.159-.24l.064-.09a7.41 7.41 0 0 1 .189-.247l.07-.086c.062-.073.125-.147.192-.22.037-.04.073-.08.112-.12.048-.05.094-.098.143-.146l.13-.128.195-.177a10.147 10.147 0 0 1 .336-.279l.193-.15c.03-.023.062-.044.092-.066.143-.106.292-.207.445-.306l.046-.03c.08-.051.163-.101.245-.15a12.985 12.985 0 0 1 2.684-1.19l.01-.003-.01.003c.189-.06.38-.098.572-.114l-.563.111c.244-.077.49-.148.74-.214.107-.028.215-.05.322-.077.148-.035.295-.072.446-.104.124-.026.251-.047.376-.071.137-.025.272-.051.407-.073.133-.022.265-.039.399-.057.13-.018.263-.037.395-.051.135-.015.271-.027.407-.039.13-.011.261-.023.393-.032a17.996 17.996 0 0 1 .798-.032 19.554 19.554 0 0 1 1.199.024l.165.012-.01.024-.017.038c-.534 1.187-1.523 2.451-2.76 3.554-.407.365-.842.712-1.297 1.033l-.17.116c-.097.068-.195.134-.299.2-.118.076-2.618 1.357-2.69 1.586-.237.747.622.814 2.805-.688a19.484 19.484 0 0 0 .332-.209c.11-.07.214-.14.32-.212.01-.009.024-.018.038-.028l.134-.091c1.974-1.395 3.584-3.24 4.344-4.94.003-.008.005-.016.009-.023.017-.036.033-.073.047-.11.024-.058.049-.115.07-.171.102-.26.183-.517.24-.767.328-1.444-.185-2.513-1.666-3.462a2.454 2.454 0 0 1-.043-.026l-.001-.001c-.66-.417-1.536-.725-2.467-.868-1.027-.158-2.591-.191-4.215.55-2.752 1.255-4.57 4.258-5.252 8.685v.005l-.002.006v.012l-.003.005v.002l-.002.014v.002a.799.799 0 0 0-.007.049c0 .01-.002.018-.005.03v.01l-.029.231c0 .008 0 .014-.003.023l-.014.13-.005.046-.014.14c-.004.023-.006.044-.008.068l-.015.146-.009.093-.014.155a2.182 2.182 0 0 1-.01.11l-.013.164a8.952 8.952 0 0 0-.022.3c-.005.049-.007.1-.011.151l-.011.17-.01.176-.01.168-.01.206-.007.16-.01.24c0 .047-.003.095-.005.144l-.007.29c0 .038-.002.074-.004.113 0 .12-.003.245-.004.37v.05c-.002.23-.002.47.003.712l-.048-.044a16.012 16.012 0 0 0-1.735-1.43 15.931 15.931 0 0 0-.273-.186l-.028-.017a11.81 11.81 0 0 0-2.25-1.189 9.676 9.676 0 0 0-.44-.16c-.077-.026-.154-.05-.231-.074.009-.131.018-.262.028-.385v-.002l.004-.045c.002-.043.006-.085.009-.127l.008-.092c.002-.04.008-.08.01-.12a1.38 1.38 0 0 1 .006-.068h-.001a.143.143 0 0 0 .003-.028l.007-.067c.002-.013 0-.025.003-.036l.007-.087c.002-.018.005-.037.005-.055.002-.016.005-.033.005-.05.002-.007.002-.014.002-.02a.428.428 0 0 1 .006-.051c.001-.015.003-.03.003-.046.002-.013.005-.027.003-.04a.053.053 0 0 0 .004-.02v-.006l.008-.066.003-.027.006-.059.006-.065c.002-.002.002-.006.002-.008l.003-.015a.295.295 0 0 1 .008-.07c0-.022.003-.043.005-.061l.009-.075c0-.011.002-.023.004-.033l.002-.017c0-.003 0-.006.002-.01l.006-.063.006-.05c.002-.021.007-.041.01-.06v-.004c0-.013.003-.026.003-.037l.007-.047.001-.015.005-.029c0-.01.003-.02.004-.028v-.012c.002-.005.002-.01.003-.016a.1.1 0 0 1 .004-.023c0-.01 0-.016.002-.024l.003-.015c0-.004.002-.008 0-.011.002-.003.002-.006.002-.008 0-.006 0-.01.002-.014a.05.05 0 0 1 .002-.016v-.007l.001-.005v-.002h.002c0-.006 0-.011.002-.013v-.005l.02-.132c.01-.063.025-.124.039-.184a.022.022 0 0 0-.007-.002c1.264-7.612 5.102-10.856 8.123-12.233a12.38 12.38 0 0 1 7.046-.967c1.622.25 3.205.822 4.456 1.61l.073.048zm.99 1.308zm.122.638a2.548 2.548 0 0 1-2.929 2.674 2.548 2.548 0 0 0 2.93-2.674h-.001zm-8.545 14.344zm2.11 2.444zm-9.343-6.636zm-.813-1.836a2.535 2.535 0 0 1 0 0zm27.735 11.18c-.796 3.505-4.09 3.024-3.29.465 2.094-6.753-.044-10.216-2.036-11.89-.27-.228-.078-.736.242-.582 5.042 2.455 5.773 8.98 5.084 12.007zM59.582 4.26c1.168.825 3.495 5.688 1.221 10.368-.085.178-.359-.016-.295-.205.773-2.273.96-5.615-2.893-8.195-1.493-.993-.041-3.605 1.967-1.968zM25.63 27.793c-.273 2.57-4.43 2.528-3.73-1.77.606-3.709 4.353-6.372 9.845-5.238.2.041.098.35-.108.35-2.341.014-5.382 1.14-6.007 6.658zm7.567-10.337C31.456 7.589 40.326.699 46.071.04c4.522-.518 4.664 4.141 1.728 3.842-11.058.388-13.352 8.894-13.783 13.483-.047.483-.737.568-.82.09zm30.36-3.609c-.258-.71 1.917-3.195 3.356-1.318 1.437 1.874-2.886 2.613-3.356 1.318zm-34.75 1.959c1.979-2.098 2.845.276 3.4 2.54.555 2.264-5.582-.225-3.4-2.54z"/>
</svg>
