<svg xmlns="http://www.w3.org/2000/svg" width="61" height="60" viewBox="0 0 61 60">
    <path fill="#FFF" fill-rule="evenodd" d="M6.412 34.413A6.409 6.409 0 0 1 0 28.008a6.409 6.409 0 0 1 6.412-6.405c1.294 0 2.498.383 3.505 1.04l17.47 11.77H6.411zM8.185 20A6.4 6.4 0 0 1 6.3 11.144a6.407 6.407 0 0 1 11.23.896l8.927 20.35L8.185 20zm46.307 14.42H33.469l17.51-11.782a6.408 6.408 0 0 1 3.513-1.041c3.55 0 6.427 2.87 6.427 6.411 0 3.541-2.878 6.412-6.427 6.412zM52.72 20L34.406 32.401l8.947-20.369a6.426 6.426 0 0 1 11.254-.896A6.401 6.401 0 0 1 52.72 20zM33 7.95c1.22-.507.711-.764-.254-.812l-1.704.003a6.37 6.37 0 0 1 .515-3.335C33.003.571 36.805-.884 40.05.556c3.245 1.441 4.705 5.232 3.26 8.468l-9.04 20.663-2.71-18.956c-.273-2.234.982-2.427 1.44-2.782zM17.59 9.028a6.404 6.404 0 0 1 3.252-8.46 6.423 6.423 0 0 1 8.475 3.247 6.368 6.368 0 0 1 .475 3.623L26.61 29.674 17.59 9.03zm39.25 50.12c-1.038.423-2.582.851-4.013.851-6.54 0-11.841-5.02-11.841-11.213s5.301-11.213 11.841-11.213c1.408 0 2.951.342 4.013.83v4.287a7.276 7.276 0 0 0-4.013-1.199c-4.037 0-7.31 3.266-7.31 7.295 0 4.028 3.273 7.295 7.31 7.295a7.343 7.343 0 0 0 4.013-1.186v4.253zM17.495 38.305h4.347v21.426L8.459 47.51v11.753H4.112v-21.42l13.383 12.222V38.305zm18.915 9.758c.813.297 3.637 1.788 3.637 5.204 0 3.416-2.607 6.016-6.035 6.016h-9.676V38.285h8.627c3.269 0 5.904 2.124 5.919 5.381.01 2.475-1.145 3.414-2.472 4.397zm-7.703-6.603v5.46h3.231a2.735 2.735 0 0 0 2.74-2.73 2.735 2.735 0 0 0-2.74-2.73h-3.231zm3.934 14.671a3.05 3.05 0 0 0 3.054-3.046 3.05 3.05 0 0 0-3.054-3.045l-3.933.017v6.074h3.933z"/>
</svg>
