<svg xmlns="http://www.w3.org/2000/svg" width="139" height="46" viewBox="0 0 139 46">
    <path fill="#FFF" fill-rule="evenodd" d="M17.952 44.969l-1.846-3.548s-.218-.374.147-.855c1.375-1.846 3.07-4.417 3.358-7.424.003-.034.017-.183.126-.2.089-.001.148.127.207.256.972 1.997 1.98 6.89-1.299 11.877-.175.258-.433.375-.693-.106zM37.067 7.515l.627 6.754s.102.725-.778 1.247c-3.344 2.017-7.652 4.967-10.033 9.5-.025.057-.145.28-.325.236-.142-.055-.151-.295-.161-.536-.245-3.755 1.308-12.085 9.649-17.814.443-.294.924-.31 1.021.613zM3.624 33.869l3.268-5.012s.326-.558 1.218-.437c3.419.439 8.012.757 12.141-1.071.048-.024.254-.114.356.015.065.117-.06.287-.183.459-1.887 2.732-7.526 7.637-16.429 7.028-.467-.04-.808-.29-.371-.982zm6.073-13.613c2.796 2.546 5.702 4.982 8.658 6.505.153.074.232.175.212.296-.037.141-.144.195-.445.245-2.268.31-8.012.862-13.724-.972-3.323-1.119-5.516-4.575-3.8-7.342 2.471-3.812 6.91-.717 9.1 1.268zm3.743 15.906c1.598-.623 2.706-1.572 3.11-1.22.41.355.176 2.285-1.548 4.132-.96 1.028-2.606 1.2-3.307.104-.949-1.55.495-2.53 1.745-3.016zm7.489-12.13c-.249.152-.77-.28-1.28-.763-.513-.48-5.88-5.973-6.895-13.888-.3-2.362-.196-7.751 4.215-9.036 4.906-1.432 7.629 1.918 8.014 4.16.383 2.216-.324 5.663-2.572 9.84-2.121 3.949-1.477 7.905-1.43 8.386.058.563.17 1.165-.052 1.3zm-9.297-7.914c.474.21.663.458.908.89l1.516 2.814c.173.31.09.47-.328.329l-3.13-1.094c-.416-.157-.542-.386-.811-.753l-2.735-3.793c-.209-.316-.027-.528.373-.326l4.207 1.933zm40.58 13.33c-.468-.165-1.567-.422-2.391-.422-2.263 0-3.337 1.239-3.337 2.747 0 1.728.922 2.946 2.704 2.946 1.093 0 1.88-.401 2.373-.923.465-.522.65-1.337.65-2.297v-2.051zm4.066 6.235s-.885.456-1.736.456c-1.015 0-1.865-.362-2.112-1.24-.658.878-2.303 1.48-3.7 1.48-2.8 0-4.738-1.616-4.738-4.496 0-3.018 2.158-4.504 5.395-4.504 1.015 0 2.248.33 2.825.521v-.589c0-1.015-.137-1.75-.577-2.272-.466-.548-1.318-1.068-2.527-1.068-1.206 0-2.558.107-3.818.794v-1.772s1.195-.684 3.997-.684c1.892 0 3.44.566 4.343 1.498.714.768 1.073 1.726 1.073 3.208v6.46c0 .629.387.877.854.877.301 0 .721-.199.721-.199v1.53zM87.032 18.69a6.798 6.798 0 0 0-2.071-.33c-.741 0-1.236.22-1.51.632-.245.383-.355.877-.355 1.754v1.899h3.53l-.487 1.667h-3.043v11.725h-2.493V24.312h-2.107v-1.667h2.107v-1.69c0-1.343.214-2.426.928-3.167.658-.714 1.482-1.084 2.992-1.084.739 0 1.824.165 2.51.41v1.576zm-22.104 0a6.812 6.812 0 0 0-2.072-.33c-.74 0-1.235.22-1.509.632-.247.383-.357.877-.357 1.754v1.899h3.53l-.486 1.667H60.99v11.725H58.5V24.312h-2.107v-1.667H58.5v-1.69c0-1.343.213-2.426.928-3.167.658-.714 1.48-1.084 2.99-1.084.74 0 1.826.165 2.511.41v1.576zm72.495 4.159v1.701c-1.265-.43-2.262-.582-3.124-.582-2.025.002-2.638.87-2.638 1.746 0 1.248.796 1.685 2.25 2.33 1.456.644 4.605 1.22 4.605 4.353 0 3.136-2.911 3.984-5.047 3.984-2.136 0-4.023-.579-4.023-.579v-1.768c1.562.653 2.885.675 3.943.685 1.779.015 2.469-.805 2.627-1.988.249-1.886-1.408-2.427-2.52-2.857-1.113-.429-4.328-1.248-4.328-4.077 0-2.83 2.912-3.488 4.938-3.488 2.024 0 3.317.54 3.317.54zm-44.387 1.118c-2.328 0-3.468 1.676-3.468 5.388 0 3.713 1.14 5.362 3.468 5.362 2.329 0 3.468-1.65 3.468-5.362s-1.14-5.388-3.468-5.388zm0 12.414c-3.665 0-5.96-2.52-5.96-7.026 0-4.504 2.295-7.051 5.96-7.051 3.668 0 5.96 2.547 5.96 7.051 0 4.507-2.292 7.026-5.96 7.026zm13.855-12.414c-2.328 0-3.468 1.676-3.468 5.388 0 3.713 1.14 5.362 3.468 5.362 2.328 0 3.468-1.65 3.468-5.362s-1.14-5.388-3.468-5.388zm0 12.414c-3.666 0-5.961-2.52-5.961-7.026 0-4.504 2.295-7.051 5.961-7.051 3.667 0 5.962 2.547 5.962 7.051 0 4.507-2.295 7.026-5.962 7.026zm-36.826-4.474c.002.8.12 1.409.41 1.836.293.432.784.638 1.467.636.479-.002 1.364-.226 1.364-.226v1.53s-1.311.456-2.092.456c-1.267.002-2.36-.446-2.888-1.109-.532-.669-.724-1.477-.724-2.956v-7.762h-2.411l.478-1.667h1.933v-3.528l2.463-.736v4.264h3.24v1.667h-3.24v7.595zM43.49 24.581c-1.824-.194-2.715.485-3.21 1.116-.548.685-.74 1.59-.74 2.962v7.378h-2.485V24.312h-1.766v-1.659h3.29l.495 1.919c.685-1.344 2.31-2.263 4.416-2.084v2.093zm-16.26 2.482l3.408-4.418h2.69l-3.919 5.22a.139.139 0 0 0-.01.15l3.11 5.368c.422.77.824 1.076 1.395 1.07.319-.003.818-.29.818-.29l.012 1.52s-.797.456-1.68.456c-1.286 0-2.1-.44-2.846-1.703l-3.233-5.701H25.06l-.002 7.323h-2.692v-19.41h2.694v10.415h2.17zm96.83-2.28s-.907-.815-2.269-.815c-3.077 0-4.487 1.812-4.487 5.813 0 2.884.793 4.938 3.368 4.938 1.4 0 2.434-.628 2.91-1.662.365-.785.477-1.54.477-2.575v-5.699zm.16 10.162c-.728.834-2.037 1.442-3.743 1.442-3.891 0-5.683-2.827-5.683-6.494 0-2.351.644-4.366 1.932-5.738 1.119-1.175 2.827-1.846 4.898-1.846 1.431 0 2.435.708 2.435.708v-5.67l2.521-.646v16.561c0 .867.3 1.035.729 1.035.28 0 .728-.144.728-.144v1.443s-.656.625-2.078.56c-1.35-.062-1.739-1.21-1.739-1.21zm-51.707 2.95c.137.074-.253.48-.253.48C70.277 40.417 61.497 46 47.932 46c-13.564 0-22.345-5.582-24.325-7.626 0 0-.393-.405-.254-.479.092-.041.215.004.563.173 2.293 1.154 8.915 4.727 24.016 4.727 15.101 0 21.724-3.573 24.019-4.727.347-.17.47-.214.562-.173z"/>
</svg>
