<svg xmlns="http://www.w3.org/2000/svg" width="105" height="40" viewBox="0 0 105 40">
    <path fill="#FFF" fill-rule="evenodd" d="M5.688 22.027v3.794c0 4.64 3.724 8.414 8.3 8.414h.297c3.41 0 6.183-2.812 6.183-6.267 0-2.759-1.768-5.106-4.215-5.941H5.688zm-.283-6.091V12.92C5.405 5.796 11.125 0 18.154 0h.263c5.992 0 10.867 4.94 10.867 11.013 0 4.134-2.259 7.743-5.59 9.626a12.077 12.077 0 0 1 2.462 7.33C26.156 34.601 20.831 40 14.285 40h-.296C6.276 40 0 33.64 0 25.821v-9.885h5.405zm5.688 0h3.192c.946 0 1.867.113 2.75.326h1.382c2.856 0 5.178-2.355 5.178-5.249 0-2.894-2.322-5.248-5.178-5.248h-.263c-3.893 0-7.06 3.21-7.06 7.156v3.015zm30.92 5.628c1.162 0 2.029-.39 2.6-1.173.57-.781.855-1.814.855-3.1 0-2.356-.803-3.534-2.41-3.534-1.056 0-2.018.44-2.884 1.317v6.298a8.967 8.967 0 0 0 1.839.192zm2.568-12.21c1.902 0 3.482.69 4.74 2.073 1.257 1.382 1.886 3.187 1.886 5.415 0 2.827-.804 5.07-2.41 6.73-1.606 1.66-3.878 2.49-6.816 2.49-1.247 0-2.573-.149-3.979-.45-1.405-.298-2.541-.684-3.408-1.155V2.703h5.58v8.065c1.352-.942 2.821-1.413 4.407-1.413zm16.856 4.077c-.74 0-1.437.235-2.092.706-.656.472-1.11 1.157-1.363 2.057h3.424c.655 0 1.141-.144 1.458-.434.317-.289.476-.615.476-.98 0-.385-.174-.707-.524-.964-.348-.257-.808-.385-1.379-.385zm.254 8.258c1.479 0 3.012-.483 4.597-1.446l2.029 3.63c-2.05 1.458-4.386 2.185-7.007 2.185-2.684 0-4.745-.803-6.182-2.41-1.437-1.606-2.155-3.544-2.155-5.816 0-2.398.766-4.439 2.298-6.12 1.532-1.682 3.556-2.523 6.071-2.523 2.029 0 3.71.51 5.04 1.527 1.333 1.017 1.998 2.383 1.998 4.096 0 1.414-.438 2.603-1.315 3.567s-2.299 1.446-4.265 1.446h-4.628c.528 1.242 1.701 1.864 3.519 1.864zm9.12 3.956V2.703h5.706v22.942H70.81zm8.997.172V9.751h5.643v16.066h-5.643zm5.136-18.524c-.571.59-1.343.884-2.315.884s-1.744-.294-2.314-.884c-.57-.589-.856-1.387-.856-2.394 0-1.006.285-1.804.856-2.393.57-.59 1.342-.884 2.314-.884s1.744.295 2.315.884c.57.59.856 1.387.856 2.393 0 1.007-.286 1.805-.856 2.394zM99.106 9.73h5.39l-5.96 16.066h-5.644L87.026 9.73h5.581l3.202 10.956L99.106 9.73zM40.034 36.827l.74 1.81c-.707.546-1.558.818-2.553.818-.822 0-1.477-.243-1.966-.73-.488-.487-.733-1.178-.733-2.073v-2.95h-.928v-1.71h.928V29.73h2.583v2.263h2.175V33.7h-2.175v2.614c0 .585.29.877.87.877.377 0 .73-.122 1.059-.365zm4.833 2.746c-1.17 0-2.096-.35-2.778-1.051-.682-.7-1.018-1.631-1.008-2.79.01-1.177.35-2.112 1.023-2.804.672-.69 1.593-1.036 2.763-1.036 1.209 0 2.144.34 2.807 1.022.662.681.993 1.621.993 2.819 0 1.168-.338 2.1-1.015 2.796-.677.696-1.605 1.044-2.785 1.044zm-1.305-3.84c0 1.188.435 1.78 1.305 1.78.87 0 1.305-.592 1.305-1.78 0-1.188-.435-1.782-1.305-1.782-.87 0-1.305.594-1.305 1.782zm15.712-3.841c.735 0 1.332.214 1.792.641.46.429.689 1.048.689 1.855v4.994h-2.64v-4.438c0-.322-.056-.565-.167-.73-.111-.167-.317-.249-.616-.249-.426 0-.851.166-1.277.497v4.92h-2.64v-4.438c0-.322-.055-.565-.167-.73-.111-.167-.316-.249-.616-.249-.426 0-.851.166-1.277.497v4.92H49.73v-7.3h2.394v.744c.86-.623 1.731-.934 2.611-.934.9 0 1.542.31 1.93.934.86-.623 1.73-.934 2.61-.934zm6.982 0c.996 0 1.804.267 2.422.802.619.537.93 1.28.93 2.234v4.454h-2.235v-.773c-.551.623-1.277.934-2.176.934-.755 0-1.359-.204-1.813-.613-.455-.409-.682-.96-.682-1.65 0-.575.177-1.052.53-1.432.352-.38.785-.642 1.298-.788a6.38 6.38 0 0 1 1.74-.22c.378 0 .701.02.972.06 0-.351-.118-.611-.355-.782-.237-.17-.534-.255-.892-.255-.687 0-1.398.257-2.133.774l-.972-1.563c.397-.36.898-.648 1.502-.861a5.528 5.528 0 0 1 1.864-.321zm-.334 5.768c.339 0 .632-.12.878-.358.247-.239.39-.562.428-.971h-.812c-.793 0-1.19.234-1.19.7a.6.6 0 0 0 .182.454c.12.116.292.175.514.175zm13.118-5.768h2.465l-2.727 7.301h-2.582l-2.683-7.301h2.552l1.466 4.98 1.509-4.98zm5.63-1.207c-.26.268-.613.402-1.058.402-.445 0-.797-.134-1.059-.402-.261-.267-.391-.63-.391-1.088 0-.457.13-.82.391-1.087.262-.268.614-.402 1.06-.402.444 0 .797.134 1.058.402.26.268.392.63.392 1.087 0 .458-.131.82-.392 1.088zm-2.349 8.42v-7.302h2.582v7.301H82.32zm8.57-10.457h2.54v10.427h-2.336v-.526c-.609.477-1.267.716-1.972.716-.871 0-1.618-.34-2.241-1.023-.625-.681-.937-1.587-.937-2.715 0-1.189.346-2.142 1.038-2.863.69-.72 1.545-1.08 2.56-1.08.474 0 .923.093 1.349.276v-3.212zm-2.305 6.863c0 .468.094.865.283 1.19.188.327.49.49.906.49.416 0 .789-.151 1.117-.452v-2.731c-.319-.234-.648-.35-.987-.35-.377 0-.69.165-.942.496-.252.331-.377.784-.377 1.357zm9.562-3.62c.996 0 1.804.268 2.423.803.619.537.928 1.28.928 2.234v4.454h-2.234v-.773c-.551.623-1.276.934-2.176.934-.754 0-1.36-.204-1.813-.613-.455-.409-.682-.96-.682-1.65 0-.575.176-1.052.53-1.432.352-.38.785-.642 1.298-.788a6.384 6.384 0 0 1 1.74-.22c.378 0 .702.02.972.06 0-.351-.118-.611-.355-.782-.237-.17-.534-.255-.892-.255-.687 0-1.398.257-2.133.774l-.971-1.563c.396-.36.896-.648 1.501-.861a5.528 5.528 0 0 1 1.864-.321zm-.333 5.769c.338 0 .63-.12.877-.358.247-.239.389-.562.428-.971h-.812c-.793 0-1.19.234-1.19.7 0 .186.06.337.181.454.121.116.293.175.516.175z"/>
</svg>
