<?xml version="1.0" encoding="utf-8"?>
<!-- Generator: Adobe Illustrator 25.2.0, SVG Export Plug-In . SVG Version: 6.00 Build 0)  -->
<svg version="1.1" xmlns="http://www.w3.org/2000/svg" xmlns:xlink="http://www.w3.org/1999/xlink" x="0px" y="0px"
	 viewBox="0 0 1896.95 619.71" style="enable-background:new 0 0 1896.95 619.71;" xml:space="preserve">
<style type="text/css">
	.st0{display:none;fill:#FFFFFF;}
	.st1{display:none;}
	.st2{fill:#FFFFFF;}
	.st3{fill:url(#SVGID_1_);}
	.st4{fill:#F7941D;}
	.st5{fill:none;}
</style>
<g id="Layer_1">
	<g id="Dot_Pattern_Vector_Pack_12">
	</g>
	<g>
		<path class="st2" d="M44.71,467.83l25.43-6.36c2.02-0.5,3.43-2.32,3.43-4.4V119.67c0-2.08-1.42-3.89-3.43-4.4l-25.43-6.36
			c-2.02-0.5-3.43-2.32-3.43-4.4v0c0-2.5,2.03-4.53,4.53-4.53h60.91c29.26,0,52.98,23.72,52.98,52.98v69.19
			c0,4.07,4.98,6.09,7.79,3.14c2.92-3.05,5.88-5.71,8.9-7.97c15.42-11.84,33.19-17.76,53.29-17.76c20.09,0,38.12,4.22,54.1,12.65
			c15.96,8.44,28.43,19.47,37.41,33.1c8.97,13.64,13.46,27.99,13.46,43.06v168.7c0,2.08,1.42,3.89,3.43,4.4l25.43,6.36
			c2.02,0.5,3.43,2.32,3.43,4.4l0,0c0,2.5-2.03,4.53-4.53,4.53h-60.91c-29.26,0-52.98-23.72-52.98-52.98V288.37
			c0-22.61-4.04-39.92-12.11-51.94c-8.07-12.02-17.49-18.03-28.26-18.03c-13.64,0-25.84,7.18-36.6,21.53
			c-4.51,5.9-8.35,12.8-11.51,20.7c-0.22,0.54-0.33,1.13-0.33,1.72v194.73c0,2.08,1.42,3.89,3.43,4.4l25.43,6.36
			c2.02,0.5,3.43,2.32,3.43,4.4l0,0c0,2.5-2.03,4.53-4.53,4.53H45.81c-2.5,0-4.53-2.03-4.53-4.53l0,0
			C41.28,470.15,42.7,468.34,44.71,467.83z"/>
		<path class="st2" d="M388.46,579.57c-8.97-8.61-13.46-20.45-13.46-35.52c0-13.64,3.68-24.22,11.03-31.76
			c7.35-7.54,17.13-11.3,29.34-11.3c2.87,0,6.26,0.01,9.13,0.55c2.64,0.5,4,1.02,5.12,1.06c0.19,0.01,0.37,0.02,0.56,0.05l2.79,0.43
			c2.26,0.35,6.16,4.27,3.93,4.58c-10.92,1.52-22.17,4.96-30.97,11.82c-19.66,15.33-16.29,50.82,10.05,56.33
			c18.28,3.82,37.36-2.77,48.99-17.44c11.01-13.89,18.22-31.06,24.94-47.3c0.28-0.67,0.55-1.33,0.82-2l9.96-24.9
			c0.51-1.28,0.43-2.71-0.23-3.92l-138-254.78c-0.58-1.08-1.57-1.88-2.74-2.23l-21.78-6.54c-1.96-0.59-3.3-2.39-3.3-4.43
			c0-2.56,2.07-4.63,4.63-4.63h62.65c18.66,0,33.45,3.86,44.41,11.57c10.94,7.72,20.36,19.11,28.26,34.18l62.52,115.53
			c1.88,3.47,6.96,3.15,8.39-0.53l51.24-132.26c0.92-2.37-0.24-5.03-2.6-5.97l-33.21-13.28c-1.76-0.7-2.91-2.41-2.91-4.3v-0.31
			c0-2.56,2.07-4.63,4.63-4.63h90.32c2.56,0,4.63,2.07,4.63,4.63v0.24c0,1.93-1.2,3.66-3,4.33l-38.12,14.29
			c-1.23,0.46-2.21,1.43-2.69,2.66l-106.9,275.27c-11.49,29.42-23.69,50.68-36.6,63.78c-12.92,13.1-27.64,19.65-44.14,19.65
			C409.99,592.49,397.42,588.18,388.46,579.57z"/>
		<path class="st2" d="M939.99,462.76c-36.47,1.22-72.96,1.72-109.44,2.02c-10.36,0.08-20.72,0.15-31.08,0.21
			c-8.56,0.05-17.21,0.6-25.63-1.26c-14.68-3.25-26.37-12.85-34.43-25.3c-11.48-17.77-17.22-41.15-17.22-82.77v-13.46
			c0-87.9,13.46-131.87,40.37-131.87c11.12,0,20.63,6.92,28.53,20.73c7.88,13.81,11.84,35.62,11.84,65.39
			c0,9.13,0.02,20.12-0.32,28.61l-0.03,2.84c-0.08,7.86,6.31,14.25,14.17,14.18l58.67-0.53c6.61-0.06,12.28-4.72,13.62-11.19
			c1.81-6.45,2.69-14.17,2.69-23.15c0-19.72-5.3-37.76-15.87-54.1c-10.6-16.32-25.65-29.33-45.2-39.02
			c-19.57-9.69-42.26-14.53-68.1-14.53c-25.84,0-48.71,5.74-68.62,17.22c-19.91,11.5-35.45,27.98-46.57,49.51
			c-11.12,21.55-16.67,46.84-16.67,75.9c0,44.51,12.72,73.1,38.2,98.4c30.92,30.69,73.79,38.35,115.77,37.92
			c51.98,0,104.03-0.74,155.96-2.99L939.99,462.76z"/>
		<path class="st2" d="M908.77,468.1c1.14-0.6,2.41-1.05,3.57-1.33c6.44-1.53,12.87-3.07,19.31-4.6c1.73-0.41,3.6-0.91,4.7-2.3
			c1.1-1.39,1.15-3.32,1.15-5.1c0-75.13,0-150.27,0-225.4c0-1.33-0.01-2.72-0.62-3.91c-1.1-2.13-3.7-2.9-6.02-3.46
			c-6.54-1.58-13.08-3.17-19.62-4.75c-2.79-0.68-6.2-2.07-6.25-4.94c-0.07-3.45,4.55-4.6,8-4.65c6.91-0.08,13.82-0.17,20.72-0.25
			c14.22-0.17,28.66-0.32,42.35,3.5c13.69,3.82,26.78,12.22,32.92,25.04c1.32,2.76,2.79,6.09,5.8,6.61
			c4.22,0.73,6.39-4.31,8.34-7.11c2.91-4.17,6.59-8.1,10.19-11.69c30.46-30.46,79.7-30.13,116.19-10.76
			c19.83,10.52,36.32,27.99,43.69,49.2c5.86,16.85,5.84,35.1,5.76,52.94c-0.2,46.28-0.41,92.56-0.61,138.84
			c-0.01,1.7,0.01,3.49,0.87,4.95c1.28,2.19,4.01,2.97,6.47,3.57c6.49,1.58,12.98,3.15,19.47,4.73c2.45,0.6,5.36,1.64,5.84,4.12
			c0.75,3.84-4.67,5.51-8.58,5.5c-14.7-0.03-29.39-0.07-44.09-0.1c-12.11-0.03-24.61-0.13-35.73-4.92
			c-11.67-5.02-20.93-15.1-25.57-26.93c-4.74-12.1-4.78-25.46-4.75-38.46c0.08-33.57,0.15-67.13,0.23-100.7
			c0.05-20.81-0.05-42.34-8.47-61.37c-4.44-10.03-11.65-19.47-21.88-23.44c-17.06-6.63-36.83,4.42-47.54,17.57
			c-3.65,4.48-6.52,9.6-8.28,15.12c-2.86,8.95-2.87,18.53-2.86,27.93c0.07,57.05,0.14,114.1,0.2,171.16c0,2.85,0.17,6.08,2.35,7.93
			c1.17,1,2.73,1.39,4.23,1.75c6.6,1.59,13.2,3.19,19.8,4.78c2.63,0.63,5.79,1.84,6.08,4.53c0.4,3.68-4.66,5.07-8.36,5.07
			c-45.16-0.01-90.32-0.02-135.48-0.03c-2.69,0-6.02-0.41-6.97-2.93C904.37,471.4,906.29,469.41,908.77,468.1z"/>
		<path class="st2" d="M1239.65,467.83l25.43-6.36c2.02-0.5,3.43-2.32,3.43-4.4V227.32c0-2.08-1.42-3.89-3.43-4.4l-25.43-6.36
			c-2.02-0.5-3.43-2.32-3.43-4.4c0-2.5,2.03-4.53,4.53-4.53l43.91,0c21.17,0,37.85,6.82,50.06,20.45c3.09,3.57,5.87,7.69,8.33,12.36
			c1.61,3.06,5.95,3.15,7.81,0.23c4.01-6.29,8.5-11.92,13.47-16.89c16.15-16.15,36.24-24.22,60.29-24.22
			c20.09,0,38.12,4.22,54.1,12.65c15.96,8.44,28.43,19.47,37.41,33.1c8.96,13.64,13.46,27.99,13.46,43.06v168.7
			c0,2.08,1.42,3.89,3.43,4.4l25.43,6.36c2.02,0.5,3.43,2.32,3.43,4.4c0,2.5-2.03,4.53-4.53,4.53h-60.91
			c-29.26,0-52.98-23.72-52.98-52.98V288.37c0-22.61-4.04-39.92-12.11-51.94c-8.08-12.02-17.49-18.03-28.26-18.03
			c-21.86,0-42.68,21.37-46.75,42.34c-1.73,8.93-1.39,18.29-1.41,27.3c-0.04,22.86-0.08,45.73-0.12,68.59
			c-0.04,23.26-0.08,46.52-0.12,69.77c-0.02,10.23-0.04,20.45-0.05,30.68c0,2.08,1.42,3.89,3.43,4.4l25.43,6.36
			c2.02,0.5,3.43,2.32,3.43,4.4c0,2.5-2.03,4.53-4.53,4.53h-141.65c-2.5,0-4.53-2.03-4.53-4.53
			C1236.22,470.15,1237.64,468.34,1239.65,467.83z"/>
		<path class="st2" d="M1598.47,464.38c-17.23-13.63-25.84-31.03-25.84-52.21c0-13.99,0-49.36,34-62.68
			c9.87-3.86,21.27-4.3,32.75-6.22c38.75-6.46,73.02-10.4,102.81-11.84v-16.15c0-39.83-4.85-67.28-14.53-82.35
			c-9.69-15.07-24.58-22.61-44.68-22.61c-7.54,0-13.99,0.9-19.38,2.69l0,0c-4.52,1.61-7.54,5.9-7.54,10.7v72.74l-7,1.61
			c-5.74,0.72-10.59,1.08-14.53,1.08c-12.2,0-21.98-3.68-29.33-11.04c-7.36-7.35-11.04-17.13-11.04-29.33
			c0-16.5,8.34-30.5,25.03-41.99c16.69-11.48,41.53-17.22,74.55-17.22c27.99,0,52.12,4.94,72.4,14.8
			c20.27,9.87,35.7,23.51,46.29,40.91c10.58,17.41,15.88,37.41,15.88,60.01v145.33l32.3,8.08v8.07h-48.45
			c-21.53,0-38.22-6.64-50.06-19.92c-5.03-5.38-8.97-12.19-11.84-20.45c-5.03,8.97-10.95,17.05-17.76,24.22
			c-16.15,16.15-36.25,24.22-60.29,24.22C1640.27,484.84,1615.69,478.01,1598.47,464.38z M1729.81,444.47
			c2.6-3.59,4.8-7.38,6.53-11.18c5.66-12.36,7.27-26.05,7.35-39.52c0.08-12.95,2.14-26.84-3.86-38.88
			c-6.02-12.08-20.34-11.36-31.94-9.96c-8.83,1.07-18.7,1.27-27.09,5.19c-10.03,4.69-14.01,13.84-15.94,24.29
			c-1.99,10.78-3.42,21.41-3.42,32.38c0,20.1,3.04,34.99,9.15,44.68c6.1,9.69,13.81,14.53,23.14,14.53
			C1708.34,466,1721.22,456.34,1729.81,444.47z"/>
		<linearGradient id="SVGID_1_" gradientUnits="userSpaceOnUse" x1="793.4241" y1="352.9841" x2="882.1041" y2="406.0753">
			<stop  offset="0" style="stop-color:#F7941D"/>
			<stop  offset="1" style="stop-color:#F26522"/>
		</linearGradient>
		<path class="st3" d="M847.54,436.4l-22.75-39.41l-17.59-30.47c-2.29-3.97,0.57-8.94,5.16-8.94h35.18h37.48
			c3.57,0,5.8,3.86,4.01,6.95l-18.74,32.46L847.54,436.4z"/>
	</g>
</g>
<g id="Layer_2">
</g>
</svg>
